<svg width="126" height="34" viewBox="0 0 126 34" fill="none" xmlns="http://www.w3.org/2000/svg">
<path d="M0 8C0 3.58172 3.58172 0 8 0H118C122.418 0 126 3.58172 126 8V26C126 30.4183 122.418 34 118 34H8C3.58172 34 0 30.4183 0 26V8Z" fill="#1A56DB"/>
<path d="M20 16.9997H15.3334H20Z" fill="white"/>
<path d="M20 12.333V16.9997M20 16.9997V21.6663M20 16.9997H24.6667M20 16.9997H15.3334" stroke="white" stroke-width="2" stroke-linecap="round" stroke-linejoin="round"/>
<path d="M36.5284 13.4062V12.2727H43.2827V13.4062H40.5597V21H39.2472V13.4062H36.5284ZM45.9471 17.1136V21H44.6729V12.2727H45.93V15.5199H46.011C46.1644 15.1676 46.3988 14.8878 46.7141 14.6804C47.0295 14.473 47.4414 14.3693 47.9499 14.3693C48.3988 14.3693 48.7908 14.4616 49.1261 14.6463C49.4641 14.831 49.7255 15.1065 49.9102 15.473C50.0977 15.8366 50.1914 16.2912 50.1914 16.8366V21H48.9173V16.9901C48.9173 16.5099 48.7937 16.1378 48.5465 15.8736C48.2994 15.6065 47.9556 15.473 47.5153 15.473C47.2141 15.473 46.9442 15.5369 46.7056 15.6648C46.4698 15.7926 46.2837 15.9801 46.1474 16.2273C46.0138 16.4716 45.9471 16.767 45.9471 17.1136ZM54.7127 21.1321C54.0678 21.1321 53.5124 20.9943 53.0465 20.7188C52.5835 20.4403 52.2255 20.0497 51.9727 19.5469C51.7227 19.0412 51.5977 18.4489 51.5977 17.7699C51.5977 17.0994 51.7227 16.5085 51.9727 15.9972C52.2255 15.4858 52.5778 15.0866 53.0295 14.7997C53.484 14.5128 54.0153 14.3693 54.6232 14.3693C54.9925 14.3693 55.3505 14.4304 55.6971 14.5526C56.0437 14.6747 56.3548 14.8665 56.6303 15.1278C56.9059 15.3892 57.1232 15.7287 57.2823 16.1463C57.4414 16.5611 57.521 17.0653 57.521 17.6591V18.1108H52.3178V17.1562H56.2724C56.2724 16.821 56.2042 16.5241 56.0678 16.2656C55.9315 16.0043 55.7397 15.7983 55.4925 15.6477C55.2482 15.4972 54.9613 15.4219 54.6317 15.4219C54.2738 15.4219 53.9613 15.5099 53.6942 15.6861C53.43 15.8594 53.2255 16.0866 53.0806 16.3679C52.9386 16.6463 52.8675 16.9489 52.8675 17.2756V18.0213C52.8675 18.4588 52.9442 18.831 53.0977 19.1378C53.2539 19.4446 53.4712 19.679 53.7496 19.8409C54.0281 20 54.3533 20.0795 54.7255 20.0795C54.967 20.0795 55.1871 20.0455 55.386 19.9773C55.5849 19.9062 55.7567 19.8011 55.9016 19.6619C56.0465 19.5227 56.1573 19.3509 56.234 19.1463L57.44 19.3636C57.3434 19.7187 57.1701 20.0298 56.9201 20.2969C56.6729 20.5611 56.3619 20.767 55.9869 20.9148C55.6147 21.0597 55.19 21.1321 54.7127 21.1321ZM55.4499 13.6705L54.5763 12.5284L53.6985 13.6705H52.5479V13.6065L54.0437 11.7997H55.1048L56.6048 13.6065V13.6705H55.4499ZM58.9347 21V14.4545H60.1577V15.5199H60.2386C60.375 15.1591 60.598 14.8778 60.9077 14.6761C61.2173 14.4716 61.5881 14.3693 62.0199 14.3693C62.4574 14.3693 62.8239 14.4716 63.1193 14.6761C63.4176 14.8807 63.6378 15.1619 63.7798 15.5199H63.848C64.0043 15.1705 64.2528 14.892 64.5938 14.6847C64.9347 14.4744 65.3409 14.3693 65.8125 14.3693C66.4062 14.3693 66.8906 14.5554 67.2656 14.9276C67.6435 15.2997 67.8324 15.8608 67.8324 16.6108V21H66.5582V16.7301C66.5582 16.2869 66.4375 15.9659 66.196 15.767C65.9545 15.5682 65.6662 15.4688 65.331 15.4688C64.9162 15.4688 64.5938 15.5966 64.3636 15.8523C64.1335 16.1051 64.0185 16.4304 64.0185 16.8281V21H62.7486V16.6491C62.7486 16.294 62.6378 16.0085 62.4162 15.7926C62.1946 15.5767 61.9063 15.4688 61.5511 15.4688C61.3097 15.4688 61.0866 15.5327 60.8821 15.6605C60.6804 15.7855 60.517 15.9602 60.392 16.1847C60.2699 16.4091 60.2088 16.669 60.2088 16.9645V21H58.9347ZM73.9901 12.2727V21H72.7159V12.2727H73.9901ZM81.1758 13.9986H82.1602C82.1602 14.669 82.0082 15.1989 81.7042 15.5881C81.4031 15.9744 80.8888 16.1676 80.1616 16.1676V15.4517C80.4513 15.4517 80.6687 15.392 80.8136 15.2727C80.9585 15.1506 81.055 14.9815 81.1033 14.7656C81.1516 14.5469 81.1758 14.2912 81.1758 13.9986ZM78.4613 21.1321C77.8477 21.1321 77.3121 20.9915 76.8548 20.7102C76.3974 20.429 76.0423 20.0355 75.7894 19.5298C75.5366 19.0241 75.4102 18.4332 75.4102 17.7571C75.4102 17.0781 75.5366 16.4844 75.7894 15.9759C76.0423 15.4673 76.3974 15.0724 76.8548 14.7912C77.3121 14.5099 77.8477 14.3693 78.4613 14.3693C79.0749 14.3693 79.6104 14.5099 80.0678 14.7912C80.5252 15.0724 80.8803 15.4673 81.1332 15.9759C81.386 16.4844 81.5124 17.0781 81.5124 17.7571C81.5124 18.4332 81.386 19.0241 81.1332 19.5298C80.8803 20.0355 80.5252 20.429 80.0678 20.7102C79.6104 20.9915 79.0749 21.1321 78.4613 21.1321ZM78.4656 20.0625C78.8633 20.0625 79.1928 19.9574 79.4542 19.7472C79.7156 19.5369 79.9087 19.2571 80.0337 18.9077C80.1616 18.5582 80.2255 18.1733 80.2255 17.7528C80.2255 17.3352 80.1616 16.9517 80.0337 16.6023C79.9087 16.25 79.7156 15.9673 79.4542 15.7543C79.1928 15.5412 78.8633 15.4347 78.4656 15.4347C78.065 15.4347 77.7326 15.5412 77.4684 15.7543C77.207 15.9673 77.0124 16.25 76.8846 16.6023C76.7596 16.9517 76.6971 17.3352 76.6971 17.7528C76.6971 18.1733 76.7596 18.5582 76.8846 18.9077C77.0124 19.2571 77.207 19.5369 77.4684 19.7472C77.7326 19.9574 78.065 20.0625 78.4656 20.0625ZM77.9371 13.581L78.9343 11.6165H80.2766L78.9556 13.581H77.9371ZM83.0167 23.4545V14.4545H84.261V15.5156H84.3675C84.4414 15.3793 84.5479 15.2216 84.6871 15.0426C84.8263 14.8636 85.0195 14.7074 85.2667 14.5739C85.5138 14.4375 85.8406 14.3693 86.2468 14.3693C86.7752 14.3693 87.2468 14.5028 87.6616 14.7699C88.0763 15.0369 88.4016 15.4219 88.6374 15.9247C88.8761 16.4276 88.9954 17.0327 88.9954 17.7401C88.9954 18.4474 88.8775 19.054 88.6417 19.5597C88.4059 20.0625 88.082 20.4503 87.6701 20.723C87.2582 20.9929 86.788 21.1278 86.2596 21.1278C85.8619 21.1278 85.5366 21.0611 85.2837 20.9276C85.0337 20.794 84.8377 20.6378 84.6957 20.4588C84.5536 20.2798 84.4442 20.1207 84.3675 19.9815H84.2908V23.4545H83.0167ZM84.2653 17.7273C84.2653 18.1875 84.332 18.5909 84.4656 18.9375C84.5991 19.2841 84.7923 19.5554 85.0451 19.7514C85.2979 19.9446 85.6076 20.0412 85.9741 20.0412C86.3548 20.0412 86.6729 19.9403 86.9286 19.7386C87.1843 19.5341 87.3775 19.2571 87.5082 18.9077C87.6417 18.5582 87.7085 18.1648 87.7085 17.7273C87.7085 17.2955 87.6431 16.9077 87.5124 16.5639C87.3846 16.2202 87.1914 15.9489 86.9329 15.75C86.6772 15.5511 86.3576 15.4517 85.9741 15.4517C85.6048 15.4517 85.2923 15.5469 85.0366 15.7372C84.7837 15.9276 84.592 16.1932 84.4613 16.5341C84.3306 16.875 84.2653 17.2727 84.2653 17.7273ZM93.5987 21V14.4545H94.8217V15.5199H94.9027C95.0391 15.1591 95.2621 14.8778 95.5717 14.6761C95.8814 14.4716 96.2521 14.3693 96.6839 14.3693C97.1214 14.3693 97.4879 14.4716 97.7834 14.6761C98.0817 14.8807 98.3018 15.1619 98.4439 15.5199H98.5121C98.6683 15.1705 98.9169 14.892 99.2578 14.6847C99.5987 14.4744 100.005 14.3693 100.477 14.3693C101.07 14.3693 101.555 14.5554 101.93 14.9276C102.308 15.2997 102.496 15.8608 102.496 16.6108V21H101.222V16.7301C101.222 16.2869 101.102 15.9659 100.86 15.767C100.619 15.5682 100.33 15.4688 99.995 15.4688C99.5803 15.4688 99.2578 15.5966 99.0277 15.8523C98.7976 16.1051 98.6825 16.4304 98.6825 16.8281V21H97.4126V16.6491C97.4126 16.294 97.3018 16.0085 97.0803 15.7926C96.8587 15.5767 96.5703 15.4688 96.2152 15.4688C95.9737 15.4688 95.7507 15.5327 95.5462 15.6605C95.3445 15.7855 95.1811 15.9602 95.0561 16.1847C94.9339 16.4091 94.8729 16.669 94.8729 16.9645V21H93.5987ZM109.676 13.9986H110.66C110.66 14.669 110.508 15.1989 110.204 15.5881C109.903 15.9744 109.389 16.1676 108.662 16.1676V15.4517C108.951 15.4517 109.169 15.392 109.314 15.2727C109.458 15.1506 109.555 14.9815 109.603 14.7656C109.652 14.5469 109.676 14.2912 109.676 13.9986ZM106.961 21.1321C106.348 21.1321 105.812 20.9915 105.355 20.7102C104.897 20.429 104.542 20.0355 104.289 19.5298C104.037 19.0241 103.91 18.4332 103.91 17.7571C103.91 17.0781 104.037 16.4844 104.289 15.9759C104.542 15.4673 104.897 15.0724 105.355 14.7912C105.812 14.5099 106.348 14.3693 106.961 14.3693C107.575 14.3693 108.11 14.5099 108.568 14.7912C109.025 15.0724 109.38 15.4673 109.633 15.9759C109.886 16.4844 110.012 17.0781 110.012 17.7571C110.012 18.4332 109.886 19.0241 109.633 19.5298C109.38 20.0355 109.025 20.429 108.568 20.7102C108.11 20.9915 107.575 21.1321 106.961 21.1321ZM106.966 20.0625C107.363 20.0625 107.693 19.9574 107.954 19.7472C108.216 19.5369 108.409 19.2571 108.534 18.9077C108.662 18.5582 108.725 18.1733 108.725 17.7528C108.725 17.3352 108.662 16.9517 108.534 16.6023C108.409 16.25 108.216 15.9673 107.954 15.7543C107.693 15.5412 107.363 15.4347 106.966 15.4347C106.565 15.4347 106.233 15.5412 105.968 15.7543C105.707 15.9673 105.512 16.25 105.385 16.6023C105.26 16.9517 105.197 17.3352 105.197 17.7528C105.197 18.1733 105.26 18.5582 105.385 18.9077C105.512 19.2571 105.707 19.5369 105.968 19.7472C106.233 19.9574 106.565 20.0625 106.966 20.0625ZM106.437 13.581L107.434 11.6165H108.777L107.456 13.581H106.437ZM111.517 21V14.4545H112.791V21H111.517ZM112.16 13.4446C111.939 13.4446 111.748 13.3707 111.589 13.223C111.433 13.0724 111.355 12.8935 111.355 12.6861C111.355 12.4759 111.433 12.2969 111.589 12.1491C111.748 11.9986 111.939 11.9233 112.16 11.9233C112.382 11.9233 112.571 11.9986 112.727 12.1491C112.886 12.2969 112.966 12.4759 112.966 12.6861C112.966 12.8935 112.886 13.0724 112.727 13.223C112.571 13.3707 112.382 13.4446 112.16 13.4446Z" fill="white"/>
</svg>
