<svg width="25" height="24" viewBox="0 0 25 24" fill="none" xmlns="http://www.w3.org/2000/svg">
<path d="M17.8697 13.0862V11.1915C17.8704 9.91088 17.4219 8.6675 16.5966 7.66238C15.7713 6.65725 14.6175 5.94916 13.3218 5.65258C13.3317 5.61584 13.3394 5.57859 13.3448 5.541V3.05262C13.3448 2.77345 13.2295 2.50571 13.0241 2.3083C12.8188 2.1109 12.5404 2 12.25 2C11.9596 2 11.6812 2.1109 11.4759 2.3083C11.2705 2.50571 11.1552 2.77345 11.1552 3.05262V5.541C11.1606 5.57859 11.1683 5.61584 11.1782 5.65258C9.88249 5.94916 8.72871 6.65725 7.90343 7.66238C7.07815 8.6675 6.62961 9.91088 6.63034 11.1915V13.0862C6.63034 15.5977 4.58633 16.2251 4.58633 17.4808C4.58633 18.105 4.58633 18.7366 5.17534 18.7366H19.3247C19.9137 18.7366 19.9137 18.105 19.9137 17.4808C19.9137 16.2251 17.8697 15.5977 17.8697 13.0862Z" fill="#1F2A37"/>
<path d="M3.34481 12.2441C3.05445 12.2441 2.77598 12.1332 2.57066 11.9358C2.36535 11.7384 2.25 11.4706 2.25 11.1915C2.25561 8.69558 3.23957 6.29345 5.00564 4.46418C5.20294 4.25885 5.477 4.13729 5.76752 4.12623C6.05804 4.11518 6.34123 4.21554 6.55479 4.40524C6.76836 4.59493 6.89479 4.85843 6.90629 5.13775C6.91779 5.41708 6.81341 5.68936 6.6161 5.89469C5.22283 7.33592 4.44569 9.22908 4.43962 11.1967C4.43817 11.475 4.32219 11.7414 4.11703 11.9376C3.91187 12.1339 3.63423 12.2441 3.34481 12.2441Z" fill="#1F2A37"/>
<path d="M21.1552 12.2441C20.8648 12.2441 20.5864 12.1332 20.381 11.9358C20.1757 11.7384 20.0604 11.4706 20.0604 11.1915C20.0529 9.22564 19.2759 7.33459 17.8839 5.89469C17.6963 5.68798 17.6001 5.41904 17.6157 5.14514C17.6313 4.87124 17.7575 4.61401 17.9674 4.42824C18.1774 4.24246 18.4544 4.14281 18.7396 4.15051C19.0248 4.15821 19.2956 4.27264 19.4944 4.46944C21.2604 6.29871 22.2444 8.70084 22.25 11.1967C22.2486 11.475 22.1326 11.7414 21.9274 11.9376C21.7222 12.1339 21.4446 12.2441 21.1552 12.2441Z" fill="#1F2A37"/>
<path d="M8.77179 19.7892C9.06222 20.445 9.54679 21.0043 10.1652 21.3973C10.7837 21.7904 11.5086 22 12.25 22C12.9914 22 13.7163 21.7904 14.3348 21.3973C14.9532 21.0043 15.4378 20.445 15.7282 19.7892H8.77179Z" fill="#1F2A37"/>
</svg>
