<svg width="21" height="21" viewBox="0 0 21 21" fill="none" xmlns="http://www.w3.org/2000/svg">
<mask id="path-1-inside-1_1397_4156" fill="white">
<path d="M10.625 11.0263C12.2819 11.0263 13.625 9.61251 13.625 7.86846C13.625 6.12441 12.2819 4.71058 10.625 4.71058C8.96814 4.71058 7.625 6.12441 7.625 7.86846C7.625 9.61251 8.96814 11.0263 10.625 11.0263Z"/>
<path d="M9.625 14.1842H11.625C12.6859 14.1842 13.7033 14.6278 14.4534 15.4175C15.2036 16.2071 15.625 17.278 15.625 18.3947V20.5H5.625V18.3947C5.625 17.278 6.04643 16.2071 6.79657 15.4175C7.54672 14.6278 8.56413 14.1842 9.625 14.1842Z"/>
<path d="M13.625 7.86846C13.6243 7.12425 13.3733 6.40431 12.9167 5.83616C12.46 5.26801 11.8271 4.88829 11.13 4.76426"/>
<path d="M15.125 0.500065C14.4065 0.502377 13.702 0.709012 13.0859 1.09812C12.4698 1.48723 11.965 2.04436 11.625 2.71058C12.7537 2.95471 13.7678 3.60106 14.4965 4.54065C15.2252 5.48023 15.6237 6.65557 15.625 7.86846C15.6233 8.20795 15.5898 8.54643 15.525 8.87899C16.5475 8.77657 17.493 8.26293 18.1648 7.44503C18.8365 6.62713 19.1826 5.568 19.1311 4.4882C19.0795 3.40839 18.6343 2.39113 17.888 1.64823C17.1418 0.905338 16.1521 0.494069 15.125 0.500065Z"/>
<path d="M7.991 12.3232C7.13749 11.7605 6.46302 10.9424 6.054 9.97372H5.625C4.2994 9.97539 3.02856 10.5304 2.09122 11.5171C1.15388 12.5038 0.626588 13.8415 0.625 15.2369V17.3421C0.625 17.6213 0.730357 17.889 0.917893 18.0864C1.10543 18.2838 1.35978 18.3947 1.625 18.3947H3.625C3.62728 17.0208 4.05463 15.6851 4.84238 14.5896C5.63013 13.4941 6.73542 12.6985 7.991 12.3232Z"/>
<path d="M15.625 9.97372H15.196C14.787 10.9424 14.1125 11.7605 13.259 12.3232C14.5146 12.6985 15.6199 13.4941 16.4076 14.5896C17.1954 15.6851 17.6227 17.0208 17.625 18.3947H19.625C19.8902 18.3947 20.1446 18.2838 20.3321 18.0864C20.5196 17.889 20.625 17.6213 20.625 17.3421V15.2369C20.6234 13.8415 20.0961 12.5038 19.1588 11.5171C18.2214 10.5304 16.9506 9.97539 15.625 9.97372Z"/>
<path d="M5.625 7.86847C5.62627 6.65557 6.02484 5.48024 6.75349 4.54065C7.48215 3.60107 8.49633 2.95472 9.625 2.71059C9.29852 2.07248 8.82064 1.53421 8.23789 1.14819C7.65515 0.762172 6.98738 0.541544 6.29959 0.507785C5.61181 0.474027 4.92743 0.628288 4.31309 0.955552C3.69874 1.28282 3.17536 1.77194 2.79388 2.3753C2.4124 2.97866 2.18583 3.67571 2.13621 4.3986C2.08659 5.12148 2.21562 5.84558 2.51074 6.5004C2.80586 7.15522 3.25701 7.71845 3.82028 8.13528C4.38355 8.55211 5.03975 8.80832 5.725 8.87899C5.66016 8.54643 5.62666 8.20795 5.625 7.86847Z"/>
</mask>
<path d="M10.625 11.0263C12.2819 11.0263 13.625 9.61251 13.625 7.86846C13.625 6.12441 12.2819 4.71058 10.625 4.71058C8.96814 4.71058 7.625 6.12441 7.625 7.86846C7.625 9.61251 8.96814 11.0263 10.625 11.0263Z" fill="#6B7280"/>
<path d="M9.625 14.1842H11.625C12.6859 14.1842 13.7033 14.6278 14.4534 15.4175C15.2036 16.2071 15.625 17.278 15.625 18.3947V20.5H5.625V18.3947C5.625 17.278 6.04643 16.2071 6.79657 15.4175C7.54672 14.6278 8.56413 14.1842 9.625 14.1842Z" fill="#6B7280"/>
<path d="M13.625 7.86846C13.6243 7.12425 13.3733 6.40431 12.9167 5.83616C12.46 5.26801 11.8271 4.88829 11.13 4.76426" fill="#6B7280"/>
<path d="M15.125 0.500065C14.4065 0.502377 13.702 0.709012 13.0859 1.09812C12.4698 1.48723 11.965 2.04436 11.625 2.71058C12.7537 2.95471 13.7678 3.60106 14.4965 4.54065C15.2252 5.48023 15.6237 6.65557 15.625 7.86846C15.6233 8.20795 15.5898 8.54643 15.525 8.87899C16.5475 8.77657 17.493 8.26293 18.1648 7.44503C18.8365 6.62713 19.1826 5.568 19.1311 4.4882C19.0795 3.40839 18.6343 2.39113 17.888 1.64823C17.1418 0.905338 16.1521 0.494069 15.125 0.500065Z" fill="#6B7280"/>
<path d="M7.991 12.3232C7.13749 11.7605 6.46302 10.9424 6.054 9.97372H5.625C4.2994 9.97539 3.02856 10.5304 2.09122 11.5171C1.15388 12.5038 0.626588 13.8415 0.625 15.2369V17.3421C0.625 17.6213 0.730357 17.889 0.917893 18.0864C1.10543 18.2838 1.35978 18.3947 1.625 18.3947H3.625C3.62728 17.0208 4.05463 15.6851 4.84238 14.5896C5.63013 13.4941 6.73542 12.6985 7.991 12.3232Z" fill="#6B7280"/>
<path d="M15.625 9.97372H15.196C14.787 10.9424 14.1125 11.7605 13.259 12.3232C14.5146 12.6985 15.6199 13.4941 16.4076 14.5896C17.1954 15.6851 17.6227 17.0208 17.625 18.3947H19.625C19.8902 18.3947 20.1446 18.2838 20.3321 18.0864C20.5196 17.889 20.625 17.6213 20.625 17.3421V15.2369C20.6234 13.8415 20.0961 12.5038 19.1588 11.5171C18.2214 10.5304 16.9506 9.97539 15.625 9.97372Z" fill="#6B7280"/>
<path d="M5.625 7.86847C5.62627 6.65557 6.02484 5.48024 6.75349 4.54065C7.48215 3.60107 8.49633 2.95472 9.625 2.71059C9.29852 2.07248 8.82064 1.53421 8.23789 1.14819C7.65515 0.762172 6.98738 0.541544 6.29959 0.507785C5.61181 0.474027 4.92743 0.628288 4.31309 0.955552C3.69874 1.28282 3.17536 1.77194 2.79388 2.3753C2.4124 2.97866 2.18583 3.67571 2.13621 4.3986C2.08659 5.12148 2.21562 5.84558 2.51074 6.5004C2.80586 7.15522 3.25701 7.71845 3.82028 8.13528C4.38355 8.55211 5.03975 8.80832 5.725 8.87899C5.66016 8.54643 5.62666 8.20795 5.625 7.86847Z" fill="#6B7280"/>
<path d="M9.625 14.1842V13.1842V14.1842ZM11.625 14.1842V13.1842V14.1842ZM14.4534 15.4175L13.7284 16.1062L14.4534 15.4175ZM15.625 20.5V21.5H16.625V20.5H15.625ZM5.625 20.5H4.625V21.5H5.625V20.5ZM6.79657 15.4175L7.52157 16.1062H7.52157L6.79657 15.4175ZM15.125 0.500065L15.1282 1.50006L15.1308 1.50005L15.125 0.500065ZM13.0859 1.09812L13.6199 1.94361V1.94361L13.0859 1.09812ZM11.625 2.71058L10.7343 2.25597L10.1436 3.41329L11.4136 3.68798L11.625 2.71058ZM15.625 7.86846L16.625 7.87335L16.625 7.86742L15.625 7.86846ZM15.525 8.87899L14.5435 8.6876L14.286 10.0081L15.6247 9.87401L15.525 8.87899ZM17.888 1.64823L18.5936 0.93954L17.888 1.64823ZM7.991 12.3232L8.2774 13.2813L10.3303 12.6676L8.5414 11.4883L7.991 12.3232ZM6.054 9.97372L6.97525 9.58474L6.71725 8.97372H6.054V9.97372ZM5.625 9.97372V8.97372L5.62374 8.97372L5.625 9.97372ZM2.09122 11.5171L2.81622 12.2059H2.81622L2.09122 11.5171ZM0.625 15.2369L-0.375 15.2357V15.2369H0.625ZM0.625 17.3421H-0.375H0.625ZM0.917893 18.0864L1.64289 17.3977L0.917893 18.0864ZM3.625 18.3947V19.3947H4.62334L4.625 18.3964L3.625 18.3947ZM15.625 9.97372L15.6263 8.97372H15.625V9.97372ZM15.196 9.97372V8.97372H14.5327L14.2748 9.58474L15.196 9.97372ZM13.259 12.3232L12.7086 11.4883L10.9197 12.6676L12.9726 13.2813L13.259 12.3232ZM17.625 18.3947L16.625 18.3964L16.6267 19.3947H17.625V18.3947ZM20.625 15.2369H21.625V15.2357L20.625 15.2369ZM19.1588 11.5171L18.4338 12.2059L19.1588 11.5171ZM5.625 7.86847L4.62498 7.86742L4.62501 7.87335L5.625 7.86847ZM9.625 2.71059L9.83641 3.68799L11.1077 3.41301L10.5152 2.2551L9.625 2.71059ZM8.23789 1.14819L8.79014 0.314511V0.314511L8.23789 1.14819ZM2.79388 2.3753L1.94865 1.8409V1.8409L2.79388 2.3753ZM2.51074 6.5004L1.59905 6.91128L2.51074 6.5004ZM5.725 8.87899L5.62242 9.87371L6.96479 10.0121L6.70652 8.6876L5.725 8.87899ZM10.625 12.0263C12.8818 12.0263 14.625 10.1158 14.625 7.86846H12.625C12.625 9.10918 11.6819 10.0263 10.625 10.0263V12.0263ZM14.625 7.86846C14.625 5.62108 12.8818 3.71058 10.625 3.71058V5.71058C11.6819 5.71058 12.625 6.62774 12.625 7.86846H14.625ZM10.625 3.71058C8.36815 3.71058 6.625 5.62108 6.625 7.86846H8.625C8.625 6.62774 9.56814 5.71058 10.625 5.71058V3.71058ZM6.625 7.86846C6.625 10.1158 8.36815 12.0263 10.625 12.0263V10.0263C9.56814 10.0263 8.625 9.10918 8.625 7.86846H6.625ZM9.625 15.1842H11.625V13.1842H9.625V15.1842ZM11.625 15.1842C12.4036 15.1842 13.1614 15.5093 13.7284 16.1062L15.1784 14.7287C14.2452 13.7463 12.9681 13.1842 11.625 13.1842V15.1842ZM13.7284 16.1062C14.2971 16.7048 14.625 17.5272 14.625 18.3947H16.625C16.625 17.0289 16.11 15.7093 15.1784 14.7287L13.7284 16.1062ZM14.625 18.3947V20.5H16.625V18.3947H14.625ZM15.625 19.5H5.625V21.5H15.625V19.5ZM6.625 20.5V18.3947H4.625V20.5H6.625ZM6.625 18.3947C6.625 17.5272 6.95288 16.7048 7.52157 16.1062L6.07157 14.7287C5.13997 15.7093 4.625 17.0289 4.625 18.3947H6.625ZM7.52157 16.1062C8.0886 15.5093 8.84638 15.1842 9.625 15.1842V13.1842C8.28188 13.1842 7.00483 13.7463 6.07157 14.7287L7.52157 16.1062ZM14.625 7.86747C14.624 6.90092 14.2985 5.95917 13.6961 5.20968L12.1373 6.46263C12.4482 6.84946 12.6245 7.34757 12.625 7.86945L14.625 7.86747ZM13.6961 5.20968C13.0929 4.45913 12.248 3.94746 11.3052 3.77972L10.9548 5.74879C11.4063 5.82912 11.8272 6.07689 12.1373 6.46263L13.6961 5.20968ZM15.1218 -0.49993C14.2126 -0.497004 13.3245 -0.235323 12.5519 0.252633L13.6199 1.94361C14.0795 1.65335 14.6005 1.50176 15.1282 1.50006L15.1218 -0.49993ZM12.5519 0.252633C11.7798 0.740274 11.1537 1.43423 10.7343 2.25597L12.5157 3.1652C12.7764 2.65448 13.1598 2.23419 13.6199 1.94361L12.5519 0.252633ZM11.4136 3.68798C12.3051 3.88082 13.117 4.39367 13.7063 5.15347L15.2867 3.92782C14.4186 2.80846 13.2022 2.0286 11.8364 1.73319L11.4136 3.68798ZM13.7063 5.15347C14.2963 5.91423 14.624 6.87333 14.625 7.86951L16.625 7.86742C16.6235 6.4378 16.1541 5.04623 15.2867 3.92782L13.7063 5.15347ZM14.625 7.86358C14.6237 8.14058 14.5963 8.41662 14.5435 8.6876L16.5065 9.07037C16.5834 8.67624 16.623 8.27532 16.625 7.87335L14.625 7.86358ZM15.6247 9.87401C16.919 9.74435 18.1036 9.09517 18.9376 8.0797L17.392 6.81035C16.8825 7.43068 16.1759 7.80878 15.4253 7.88396L15.6247 9.87401ZM18.9376 8.0797C19.7703 7.06576 20.193 5.76208 20.13 4.44051L18.1322 4.53588C18.1722 5.37393 17.9027 6.1885 17.392 6.81035L18.9376 8.0797ZM20.13 4.44051C20.0669 3.11882 19.5218 1.86357 18.5936 0.93954L17.1825 2.35693C17.7468 2.91869 18.0922 3.69796 18.1322 4.53588L20.13 4.44051ZM18.5936 0.93954C17.6638 0.0139597 16.4201 -0.507513 15.1192 -0.499918L15.1308 1.50005C15.884 1.49565 16.6198 1.79672 17.1825 2.35693L18.5936 0.93954ZM8.5414 11.4883C7.85777 11.0376 7.30974 10.377 6.97525 9.58474L5.13275 10.3627C5.61629 11.5079 6.41721 12.4834 7.4406 13.1581L8.5414 11.4883ZM6.054 8.97372H5.625V10.9737H6.054V8.97372ZM5.62374 8.97372C4.01635 8.97575 2.48638 9.64924 1.36622 10.8284L2.81622 12.2059C3.57073 11.4116 4.58246 10.975 5.62626 10.9737L5.62374 8.97372ZM1.36622 10.8284C0.247704 12.0057 -0.373128 13.5916 -0.374999 15.2357L1.625 15.238C1.6263 14.0914 2.06006 13.0018 2.81622 12.2059L1.36622 10.8284ZM-0.375 15.2369V17.3421H1.625V15.2369H-0.375ZM-0.375 17.3421C-0.375 17.8704 -0.176102 18.3868 0.192895 18.7752L1.64289 17.3977C1.63682 17.3913 1.625 17.3722 1.625 17.3421H-0.375ZM0.192895 18.7752C0.563547 19.1653 1.07754 19.3947 1.625 19.3947V17.3947C1.63238 17.3947 1.63836 17.3964 1.64199 17.398C1.64553 17.3995 1.6454 17.4003 1.64289 17.3977L0.192895 18.7752ZM1.625 19.3947H3.625V17.3947H1.625V19.3947ZM4.625 18.3964C4.62694 17.2273 4.99086 16.096 5.65426 15.1734L4.0305 14.0058C3.1184 15.2742 2.62763 16.8143 2.625 18.3931L4.625 18.3964ZM5.65426 15.1734C6.31714 14.2516 7.24018 13.5913 8.2774 13.2813L7.70459 11.3651C6.23065 11.8057 4.94312 12.7366 4.0305 14.0058L5.65426 15.1734ZM15.625 8.97372H15.196V10.9737H15.625V8.97372ZM14.2748 9.58474C13.9403 10.377 13.3922 11.0376 12.7086 11.4883L13.8094 13.1581C14.8328 12.4834 15.6337 11.5079 16.1172 10.3627L14.2748 9.58474ZM12.9726 13.2813C14.0098 13.5913 14.9329 14.2516 15.5957 15.1734L17.2195 14.0058C16.3069 12.7366 15.0194 11.8057 13.5454 11.3651L12.9726 13.2813ZM15.5957 15.1734C16.2591 16.096 16.6231 17.2273 16.625 18.3964L18.625 18.3931C18.6224 16.8143 18.1316 15.2742 17.2195 14.0058L15.5957 15.1734ZM17.625 19.3947H19.625V17.3947H17.625V19.3947ZM19.625 19.3947C20.1725 19.3947 20.6865 19.1653 21.0571 18.7752L19.6071 17.3977C19.6046 17.4003 19.6045 17.3995 19.608 17.398C19.6116 17.3964 19.6176 17.3947 19.625 17.3947V19.3947ZM21.0571 18.7752C21.4261 18.3868 21.625 17.8704 21.625 17.3421H19.625C19.625 17.3722 19.6132 17.3913 19.6071 17.3977L21.0571 18.7752ZM21.625 17.3421V15.2369H19.625V17.3421H21.625ZM21.625 15.2357C21.6231 13.5916 21.0023 12.0057 19.8838 10.8284L18.4338 12.2059C19.1899 13.0018 19.6237 14.0914 19.625 15.238L21.625 15.2357ZM19.8838 10.8284C18.7636 9.64924 17.2337 8.97575 15.6263 8.97372L15.6237 10.9737C16.6675 10.975 17.6793 11.4116 18.4338 12.2059L19.8838 10.8284ZM6.625 7.86951C6.62604 6.87334 6.95373 5.91424 7.54371 5.15348L5.96328 3.92783C5.09594 5.04624 4.6265 6.4378 4.625 7.86742L6.625 7.86951ZM7.54371 5.15348C8.13295 4.39368 8.94485 3.88083 9.83641 3.68799L9.41359 1.73319C8.0478 2.02861 6.83136 2.80846 5.96328 3.92783L7.54371 5.15348ZM10.5152 2.2551C10.1125 1.46804 9.51994 0.797945 8.79014 0.314511L7.68565 1.98188C8.12134 2.27048 8.48448 2.67692 8.73476 3.16607L10.5152 2.2551ZM8.79014 0.314511C8.05992 -0.169199 7.21876 -0.448303 6.34862 -0.491012L6.25057 1.50658C6.756 1.53139 7.25038 1.69354 7.68565 1.98188L8.79014 0.314511ZM6.34862 -0.491012C5.4784 -0.533725 4.61485 -0.338234 3.84293 0.0729694L4.78325 1.83814C5.24002 1.59481 5.74521 1.48178 6.25057 1.50658L6.34862 -0.491012ZM3.84293 0.0729694C3.07144 0.483946 2.42036 1.09482 1.94865 1.8409L3.63911 2.9097C3.93036 2.44905 4.32605 2.08169 4.78325 1.83814L3.84293 0.0729694ZM1.94865 1.8409C1.47711 2.5867 1.19936 3.44428 1.13856 4.33012L3.13386 4.46707C3.1723 3.90714 3.34769 3.37062 3.63911 2.9097L1.94865 1.8409ZM1.13856 4.33012C1.07776 5.21592 1.23559 6.10482 1.59905 6.91128L3.42243 6.08951C3.19565 5.58633 3.09543 5.02704 3.13386 4.46707L1.13856 4.33012ZM1.59905 6.91128C1.96261 7.71795 2.52113 8.41793 3.22543 8.93912L4.41513 7.33144C3.99288 7.01897 3.64911 6.59248 3.42243 6.08951L1.59905 6.91128ZM3.22543 8.93912C3.93012 9.4606 4.75575 9.78434 5.62242 9.87371L5.82758 7.88427C5.32375 7.83231 4.83697 7.64361 4.41513 7.33144L3.22543 8.93912ZM6.70652 8.6876C6.65368 8.41662 6.62634 8.14058 6.62499 7.86358L4.62501 7.87335C4.62698 8.27532 4.66664 8.67625 4.74349 9.07038L6.70652 8.6876Z" fill="#6B7280" mask="url(#path-1-inside-1_1397_4156)"/>
</svg>
