<svg width="40" height="40" viewBox="0 0 40 40" fill="none" xmlns="http://www.w3.org/2000/svg">
<path d="M0 8C0 3.58172 3.58172 0 8 0H32C36.4183 0 40 3.58172 40 8V32C40 36.4183 36.4183 40 32 40H8C3.58172 40 0 36.4183 0 32V8Z" fill="#046C4E"/>
<path d="M22.3016 18.5457L22.2986 18.5499L18.0162 22.8327L19.2997 24.1157L23.5857 19.8299L22.3016 18.5457Z" fill="white"/>
<path d="M15.8837 20.7L17.1672 21.9842L21.4502 17.7014L21.4544 17.6984L20.1697 16.4136L15.8837 20.7Z" fill="white"/>
<path d="M15.1973 21.7106L14.0308 25.2097C13.9588 25.4251 14.0152 25.6633 14.176 25.8236C14.29 25.9382 14.4437 26 14.6003 26C14.6639 26 14.7281 25.9898 14.7899 25.9688L18.2886 24.8022L15.1973 21.7106Z" fill="white"/>
<path d="M25.2934 14.7057C24.3519 13.7648 22.8195 13.7648 21.878 14.7057L21.0188 15.565L24.4347 18.9813L25.294 18.122C26.2354 17.1805 26.2354 15.6472 25.2934 14.7057Z" fill="white"/>
</svg>
