<svg width="327" height="73" viewBox="0 0 327 73" fill="none" xmlns="http://www.w3.org/2000/svg">
<rect width="327" height="73" rx="8" fill="white"/>
<path d="M84.557 39H81.3226V37.2741H84.4483C85.4455 37.2741 86.2743 37.0866 86.9348 36.7116C87.5953 36.3324 88.0897 35.7848 88.4178 35.0689C88.7459 34.3487 88.91 33.4709 88.91 32.4354C88.91 31.4084 88.7459 30.5369 88.4178 29.821C88.0939 29.1051 87.6103 28.5618 86.9668 28.1911C86.3233 27.8203 85.5243 27.6349 84.5698 27.6349H81.2523V25.9091H84.6912C85.9739 25.9091 87.0755 26.1712 87.9959 26.6953C88.9164 27.2152 89.6216 27.9631 90.1117 28.9389C90.606 29.9105 90.8532 31.076 90.8532 32.4354C90.8532 33.799 90.6039 34.9709 90.1053 35.951C89.611 36.9311 88.8951 37.6854 87.9576 38.2138C87.0201 38.7379 85.8865 39 84.557 39ZM82.2942 25.9091V39H80.3191V25.9091H82.2942ZM78.3631 32.8572V31.5405H84.2374V32.8572H78.3631ZM96.0131 39.2173C95.391 39.2173 94.8285 39.1023 94.3256 38.8722C93.8228 38.6378 93.4244 38.299 93.1303 37.8558C92.8406 37.4126 92.6957 36.8693 92.6957 36.2259C92.6957 35.6719 92.8022 35.2159 93.0153 34.858C93.2283 34.5 93.516 34.2166 93.8782 34.0078C94.2404 33.799 94.6452 33.6413 95.0927 33.5348C95.5401 33.4283 95.9961 33.3473 96.4606 33.2919C97.0487 33.2237 97.5259 33.1683 97.8924 33.1257C98.2589 33.0788 98.5252 33.0043 98.6914 32.902C98.8576 32.7997 98.9407 32.6335 98.9407 32.4034V32.3587C98.9407 31.8004 98.783 31.3679 98.4677 31.0611C98.1566 30.7543 97.6921 30.6009 97.0742 30.6009C96.4308 30.6009 95.9237 30.7436 95.5529 31.0291C95.1864 31.3104 94.9329 31.6236 94.7923 31.9688L92.9961 31.5597C93.2092 30.9631 93.5202 30.4815 93.9293 30.1151C94.3427 29.7443 94.8178 29.4759 95.3548 29.3097C95.8917 29.1392 96.4563 29.054 97.0487 29.054C97.4407 29.054 97.8562 29.1009 98.2951 29.1946C98.7383 29.2841 99.1516 29.4503 99.5352 29.6932C99.9229 29.9361 100.24 30.2834 100.488 30.7351C100.735 31.1825 100.858 31.7642 100.858 32.4801V39H98.9918V37.6577H98.9151C98.7915 37.9048 98.6062 38.1477 98.359 38.3864C98.1119 38.625 97.7944 38.8232 97.4066 38.9808C97.0188 39.1385 96.5543 39.2173 96.0131 39.2173ZM96.4286 37.6832C96.957 37.6832 97.4087 37.5788 97.7837 37.37C98.163 37.1612 98.4506 36.8885 98.6467 36.5518C98.8469 36.2109 98.9471 35.8466 98.9471 35.4588V34.1932C98.8789 34.2614 98.7468 34.3253 98.5508 34.3849C98.359 34.4403 98.1396 34.4893 97.8924 34.532C97.6452 34.5703 97.4045 34.6065 97.1701 34.6406C96.9357 34.6705 96.7397 34.696 96.582 34.7173C96.2113 34.7642 95.8725 34.843 95.5657 34.9538C95.2631 35.0646 95.0202 35.2244 94.837 35.4332C94.658 35.6378 94.5685 35.9105 94.5685 36.2514C94.5685 36.7244 94.7433 37.0824 95.0927 37.3253C95.4421 37.5639 95.8874 37.6832 96.4286 37.6832ZM98.4038 25.858H99.9762C99.9762 26.5781 99.7205 27.1641 99.2092 27.6158C98.7021 28.0632 98.016 28.2869 97.1509 28.2869C96.2901 28.2869 95.6062 28.0632 95.0991 27.6158C94.592 27.1641 94.3384 26.5781 94.3384 25.858H95.9045C95.9045 26.1776 95.9982 26.4609 96.1857 26.7081C96.3732 26.951 96.695 27.0724 97.1509 27.0724C97.5984 27.0724 97.918 26.951 98.1097 26.7081C98.3058 26.4652 98.4038 26.1818 98.4038 25.858ZM105.315 33.1705V39H103.404V29.1818H105.238V30.7798H105.36C105.586 30.2599 105.939 29.8423 106.421 29.527C106.907 29.2116 107.518 29.054 108.256 29.054C108.925 29.054 109.51 29.1946 110.013 29.4759C110.516 29.7528 110.906 30.1662 111.183 30.7159C111.46 31.2656 111.599 31.9453 111.599 32.755V39H109.687V32.9851C109.687 32.2734 109.502 31.7173 109.131 31.3168C108.76 30.9119 108.251 30.7095 107.604 30.7095C107.16 30.7095 106.766 30.8054 106.421 30.9972C106.08 31.1889 105.809 31.4702 105.609 31.8409C105.413 32.2074 105.315 32.6506 105.315 33.1705ZM118.278 42.8864C117.498 42.8864 116.827 42.7841 116.265 42.5795C115.706 42.375 115.251 42.1044 114.897 41.7678C114.543 41.4311 114.279 41.0625 114.104 40.6619L115.747 39.9844C115.862 40.1719 116.015 40.37 116.207 40.5788C116.403 40.7919 116.667 40.973 117 41.1222C117.336 41.2713 117.769 41.3459 118.297 41.3459C119.022 41.3459 119.621 41.169 120.094 40.8153C120.567 40.4659 120.803 39.9077 120.803 39.1406V37.2102H120.682C120.567 37.419 120.4 37.6513 120.183 37.907C119.97 38.1626 119.676 38.3842 119.301 38.5717C118.926 38.7592 118.438 38.853 117.837 38.853C117.062 38.853 116.363 38.6719 115.741 38.3097C115.123 37.9432 114.633 37.4041 114.27 36.6925C113.912 35.9766 113.733 35.0966 113.733 34.0526C113.733 33.0085 113.91 32.1136 114.264 31.3679C114.622 30.6222 115.112 30.0511 115.734 29.6548C116.356 29.2543 117.062 29.054 117.85 29.054C118.459 29.054 118.952 29.1562 119.327 29.3608C119.702 29.5611 119.993 29.7955 120.202 30.0639C120.415 30.3324 120.579 30.5689 120.694 30.7734H120.835V29.1818H122.708V39.2173C122.708 40.0611 122.512 40.7536 122.12 41.2947C121.728 41.8359 121.197 42.2365 120.528 42.4964C119.863 42.7564 119.113 42.8864 118.278 42.8864ZM118.259 37.2678C118.809 37.2678 119.273 37.1399 119.653 36.8842C120.036 36.6243 120.326 36.2536 120.522 35.772C120.722 35.2862 120.822 34.7045 120.822 34.027C120.822 33.3665 120.724 32.7848 120.528 32.282C120.332 31.7791 120.045 31.3871 119.665 31.1058C119.286 30.8203 118.817 30.6776 118.259 30.6776C117.684 30.6776 117.204 30.8267 116.821 31.125C116.437 31.419 116.148 31.8196 115.952 32.3267C115.76 32.8338 115.664 33.4006 115.664 34.027C115.664 34.6705 115.762 35.2351 115.958 35.7209C116.154 36.2067 116.444 36.5859 116.827 36.8587C117.215 37.1314 117.692 37.2678 118.259 37.2678ZM131.946 33.1705V39H130.035V29.1818H131.869V30.7798H131.991C132.217 30.2599 132.57 29.8423 133.052 29.527C133.538 29.2116 134.149 29.054 134.886 29.054C135.555 29.054 136.141 29.1946 136.644 29.4759C137.147 29.7528 137.537 30.1662 137.814 30.7159C138.091 31.2656 138.229 31.9453 138.229 32.755V39H136.318V32.9851C136.318 32.2734 136.133 31.7173 135.762 31.3168C135.391 30.9119 134.882 30.7095 134.234 30.7095C133.791 30.7095 133.397 30.8054 133.052 30.9972C132.711 31.1889 132.44 31.4702 132.24 31.8409C132.044 32.2074 131.946 32.6506 131.946 33.1705ZM142.704 33.1705V39H140.793V25.9091H142.678V30.7798H142.8C143.03 30.2514 143.381 29.8317 143.854 29.5206C144.327 29.2095 144.945 29.054 145.708 29.054C146.381 29.054 146.969 29.1925 147.472 29.4695C147.979 29.7464 148.371 30.1598 148.648 30.7095C148.93 31.255 149.07 31.9368 149.07 32.755V39H147.159V32.9851C147.159 32.2649 146.974 31.7067 146.603 31.3104C146.232 30.9098 145.717 30.7095 145.056 30.7095C144.604 30.7095 144.2 30.8054 143.842 30.9972C143.488 31.1889 143.209 31.4702 143.004 31.8409C142.804 32.2074 142.704 32.6506 142.704 33.1705ZM154.478 39.2173C153.856 39.2173 153.293 39.1023 152.79 38.8722C152.288 38.6378 151.889 38.299 151.595 37.8558C151.305 37.4126 151.161 36.8693 151.161 36.2259C151.161 35.6719 151.267 35.2159 151.48 34.858C151.693 34.5 151.981 34.2166 152.343 34.0078C152.705 33.799 153.11 33.6413 153.558 33.5348C154.005 33.4283 154.461 33.3473 154.925 33.2919C155.513 33.2237 155.991 33.1683 156.357 33.1257C156.724 33.0788 156.99 33.0043 157.156 32.902C157.322 32.7997 157.406 32.6335 157.406 32.4034V32.3587C157.406 31.8004 157.248 31.3679 156.933 31.0611C156.621 30.7543 156.157 30.6009 155.539 30.6009C154.896 30.6009 154.388 30.7436 154.018 31.0291C153.651 31.3104 153.398 31.6236 153.257 31.9688L151.461 31.5597C151.674 30.9631 151.985 30.4815 152.394 30.1151C152.808 29.7443 153.283 29.4759 153.82 29.3097C154.357 29.1392 154.921 29.054 155.513 29.054C155.906 29.054 156.321 29.1009 156.76 29.1946C157.203 29.2841 157.616 29.4503 158 29.6932C158.388 29.9361 158.705 30.2834 158.952 30.7351C159.2 31.1825 159.323 31.7642 159.323 32.4801V39H157.457V37.6577H157.38C157.256 37.9048 157.071 38.1477 156.824 38.3864C156.577 38.625 156.259 38.8232 155.871 38.9808C155.484 39.1385 155.019 39.2173 154.478 39.2173ZM154.893 37.6832C155.422 37.6832 155.874 37.5788 156.249 37.37C156.628 37.1612 156.915 36.8885 157.112 36.5518C157.312 36.2109 157.412 35.8466 157.412 35.4588V34.1932C157.344 34.2614 157.212 34.3253 157.016 34.3849C156.824 34.4403 156.604 34.4893 156.357 34.532C156.11 34.5703 155.869 34.6065 155.635 34.6406C155.401 34.6705 155.205 34.696 155.047 34.7173C154.676 34.7642 154.337 34.843 154.031 34.9538C153.728 35.0646 153.485 35.2244 153.302 35.4332C153.123 35.6378 153.033 35.9105 153.033 36.2514C153.033 36.7244 153.208 37.0824 153.558 37.3253C153.907 37.5639 154.352 37.6832 154.893 37.6832ZM156.926 28.0057L155.616 26.2926L154.299 28.0057H152.573V27.9098L154.817 25.1996H156.408L158.658 27.9098V28.0057H156.926ZM155.526 42.3878C155.198 42.3878 154.915 42.277 154.676 42.0554C154.438 41.8338 154.318 41.5653 154.318 41.25C154.318 40.9347 154.438 40.6662 154.676 40.4446C154.915 40.223 155.198 40.1122 155.526 40.1122C155.859 40.1122 156.142 40.223 156.376 40.4446C156.615 40.6662 156.734 40.9347 156.734 41.25C156.734 41.5653 156.615 41.8338 156.376 42.0554C156.142 42.277 155.859 42.3878 155.526 42.3878ZM161.869 42.6818V29.1818H163.735V30.7734H163.895C164.006 30.5689 164.166 30.3324 164.374 30.0639C164.583 29.7955 164.873 29.5611 165.244 29.3608C165.615 29.1562 166.105 29.054 166.714 29.054C167.507 29.054 168.214 29.2543 168.836 29.6548C169.458 30.0554 169.946 30.6328 170.3 31.3871C170.658 32.1413 170.837 33.049 170.837 34.1101C170.837 35.1712 170.66 36.081 170.306 36.8395C169.953 37.5937 169.467 38.1754 168.849 38.5845C168.231 38.9893 167.526 39.1918 166.733 39.1918C166.137 39.1918 165.649 39.0916 165.269 38.8913C164.894 38.6911 164.6 38.4567 164.387 38.1882C164.174 37.9197 164.01 37.6811 163.895 37.4723H163.78V42.6818H161.869ZM163.742 34.0909C163.742 34.7812 163.842 35.3864 164.042 35.9062C164.242 36.4261 164.532 36.8331 164.911 37.1271C165.291 37.4169 165.755 37.5618 166.305 37.5618C166.876 37.5618 167.353 37.4105 167.737 37.108C168.12 36.8011 168.41 36.3857 168.606 35.8615C168.806 35.3374 168.906 34.7472 168.906 34.0909C168.906 33.4432 168.808 32.8615 168.612 32.3459C168.421 31.8303 168.131 31.4233 167.743 31.125C167.36 30.8267 166.88 30.6776 166.305 30.6776C165.751 30.6776 165.282 30.8203 164.899 31.1058C164.519 31.3913 164.232 31.7898 164.036 32.3011C163.84 32.8125 163.742 33.4091 163.742 34.0909ZM177.895 39V25.9091H179.806V30.7734H179.922C180.032 30.5689 180.192 30.3324 180.401 30.0639C180.61 29.7955 180.9 29.5611 181.27 29.3608C181.641 29.1562 182.131 29.054 182.74 29.054C183.533 29.054 184.24 29.2543 184.863 29.6548C185.485 30.0554 185.973 30.6328 186.326 31.3871C186.684 32.1413 186.863 33.049 186.863 34.1101C186.863 35.1712 186.686 36.081 186.333 36.8395C185.979 37.5937 185.493 38.1754 184.875 38.5845C184.257 38.9893 183.552 39.1918 182.76 39.1918C182.163 39.1918 181.675 39.0916 181.296 38.8913C180.921 38.6911 180.627 38.4567 180.414 38.1882C180.201 37.9197 180.037 37.6811 179.922 37.4723H179.762V39H177.895ZM179.768 34.0909C179.768 34.7812 179.868 35.3864 180.069 35.9062C180.269 36.4261 180.559 36.8331 180.938 37.1271C181.317 37.4169 181.782 37.5618 182.331 37.5618C182.902 37.5618 183.38 37.4105 183.763 37.108C184.147 36.8011 184.436 36.3857 184.632 35.8615C184.833 35.3374 184.933 34.7472 184.933 34.0909C184.933 33.4432 184.835 32.8615 184.639 32.3459C184.447 31.8303 184.157 31.4233 183.77 31.125C183.386 30.8267 182.907 30.6776 182.331 30.6776C181.777 30.6776 181.309 30.8203 180.925 31.1058C180.546 31.3913 180.258 31.7898 180.062 32.3011C179.866 32.8125 179.768 33.4091 179.768 34.0909ZM191.867 39.2173C191.244 39.2173 190.682 39.1023 190.179 38.8722C189.676 38.6378 189.278 38.299 188.984 37.8558C188.694 37.4126 188.549 36.8693 188.549 36.2259C188.549 35.6719 188.656 35.2159 188.869 34.858C189.082 34.5 189.369 34.2166 189.732 34.0078C190.094 33.799 190.499 33.6413 190.946 33.5348C191.394 33.4283 191.85 33.3473 192.314 33.2919C192.902 33.2237 193.379 33.1683 193.746 33.1257C194.112 33.0788 194.379 33.0043 194.545 32.902C194.711 32.7997 194.794 32.6335 194.794 32.4034V32.3587C194.794 31.8004 194.637 31.3679 194.321 31.0611C194.01 30.7543 193.546 30.6009 192.928 30.6009C192.284 30.6009 191.777 30.7436 191.406 31.0291C191.04 31.3104 190.786 31.6236 190.646 31.9688L188.85 31.5597C189.063 30.9631 189.374 30.4815 189.783 30.1151C190.196 29.7443 190.671 29.4759 191.208 29.3097C191.745 29.1392 192.31 29.054 192.902 29.054C193.294 29.054 193.71 29.1009 194.149 29.1946C194.592 29.2841 195.005 29.4503 195.389 29.6932C195.776 29.9361 196.094 30.2834 196.341 30.7351C196.588 31.1825 196.712 31.7642 196.712 32.4801V39H194.845V37.6577H194.769C194.645 37.9048 194.46 38.1477 194.213 38.3864C193.965 38.625 193.648 38.8232 193.26 38.9808C192.872 39.1385 192.408 39.2173 191.867 39.2173ZM192.282 37.6832C192.811 37.6832 193.262 37.5788 193.637 37.37C194.017 37.1612 194.304 36.8885 194.5 36.5518C194.7 36.2109 194.801 35.8466 194.801 35.4588V34.1932C194.732 34.2614 194.6 34.3253 194.404 34.3849C194.213 34.4403 193.993 34.4893 193.746 34.532C193.499 34.5703 193.258 34.6065 193.024 34.6406C192.789 34.6705 192.593 34.696 192.436 34.7173C192.065 34.7642 191.726 34.843 191.419 34.9538C191.117 35.0646 190.874 35.2244 190.691 35.4332C190.512 35.6378 190.422 35.9105 190.422 36.2514C190.422 36.7244 190.597 37.0824 190.946 37.3253C191.296 37.5639 191.741 37.6832 192.282 37.6832ZM194.264 26.1456H195.804C195.804 26.7081 195.548 27.1705 195.037 27.5327C194.53 27.8906 193.835 28.0696 192.953 28.0696C192.075 28.0696 191.381 27.8906 190.869 27.5327C190.362 27.1705 190.109 26.7081 190.109 26.1456H191.643C191.643 26.4098 191.741 26.642 191.937 26.8423C192.137 27.0426 192.476 27.1428 192.953 27.1428C193.422 27.1428 193.757 27.0426 193.957 26.8423C194.161 26.642 194.264 26.4098 194.264 26.1456ZM192.557 26.0178L191.074 24.3175H192.653L193.656 26.0178H192.557ZM201.169 33.1705V39H199.257V29.1818H201.092V30.7798H201.213C201.439 30.2599 201.793 29.8423 202.275 29.527C202.76 29.2116 203.372 29.054 204.109 29.054C204.778 29.054 205.364 29.1946 205.867 29.4759C206.37 29.7528 206.76 30.1662 207.037 30.7159C207.314 31.2656 207.452 31.9453 207.452 32.755V39H205.541V32.9851C205.541 32.2734 205.355 31.7173 204.985 31.3168C204.614 30.9119 204.105 30.7095 203.457 30.7095C203.014 30.7095 202.62 30.8054 202.275 30.9972C201.934 31.1889 201.663 31.4702 201.463 31.8409C201.267 32.2074 201.169 32.6506 201.169 33.1705ZM214.132 42.8864C213.352 42.8864 212.681 42.7841 212.118 42.5795C211.56 42.375 211.104 42.1044 210.75 41.7678C210.397 41.4311 210.132 41.0625 209.958 40.6619L211.6 39.9844C211.716 40.1719 211.869 40.37 212.061 40.5788C212.257 40.7919 212.521 40.973 212.853 41.1222C213.19 41.2713 213.623 41.3459 214.151 41.3459C214.875 41.3459 215.474 41.169 215.947 40.8153C216.42 40.4659 216.657 39.9077 216.657 39.1406V37.2102H216.535C216.42 37.419 216.254 37.6513 216.037 37.907C215.824 38.1626 215.529 38.3842 215.154 38.5717C214.779 38.7592 214.292 38.853 213.691 38.853C212.915 38.853 212.216 38.6719 211.594 38.3097C210.976 37.9432 210.486 37.4041 210.124 36.6925C209.766 35.9766 209.587 35.0966 209.587 34.0526C209.587 33.0085 209.764 32.1136 210.118 31.3679C210.475 30.6222 210.966 30.0511 211.588 29.6548C212.21 29.2543 212.915 29.054 213.703 29.054C214.313 29.054 214.805 29.1562 215.18 29.3608C215.555 29.5611 215.847 29.7955 216.056 30.0639C216.269 30.3324 216.433 30.5689 216.548 30.7734H216.689V29.1818H218.561V39.2173C218.561 40.0611 218.365 40.7536 217.973 41.2947C217.581 41.8359 217.051 42.2365 216.382 42.4964C215.717 42.7564 214.967 42.8864 214.132 42.8864ZM214.113 37.2678C214.662 37.2678 215.127 37.1399 215.506 36.8842C215.89 36.6243 216.179 36.2536 216.375 35.772C216.576 35.2862 216.676 34.7045 216.676 34.027C216.676 33.3665 216.578 32.7848 216.382 32.282C216.186 31.7791 215.898 31.3871 215.519 31.1058C215.14 30.8203 214.671 30.6776 214.113 30.6776C213.537 30.6776 213.058 30.8267 212.674 31.125C212.291 31.419 212.001 31.8196 211.805 32.3267C211.613 32.8338 211.517 33.4006 211.517 34.027C211.517 34.6705 211.615 35.2351 211.811 35.7209C212.007 36.2067 212.297 36.5859 212.681 36.8587C213.069 37.1314 213.546 37.2678 214.113 37.2678ZM226.042 39V25.9091H234.16V27.6094H228.017V31.598H233.578V33.2919H228.017V39H226.042ZM239.257 39.2173C238.635 39.2173 238.073 39.1023 237.57 38.8722C237.067 38.6378 236.669 38.299 236.374 37.8558C236.085 37.4126 235.94 36.8693 235.94 36.2259C235.94 35.6719 236.046 35.2159 236.259 34.858C236.472 34.5 236.76 34.2166 237.122 34.0078C237.485 33.799 237.889 33.6413 238.337 33.5348C238.784 33.4283 239.24 33.3473 239.705 33.2919C240.293 33.2237 240.77 33.1683 241.137 33.1257C241.503 33.0788 241.769 33.0043 241.936 32.902C242.102 32.7997 242.185 32.6335 242.185 32.4034V32.3587C242.185 31.8004 242.027 31.3679 241.712 31.0611C241.401 30.7543 240.936 30.6009 240.318 30.6009C239.675 30.6009 239.168 30.7436 238.797 31.0291C238.431 31.3104 238.177 31.6236 238.036 31.9688L236.24 31.5597C236.453 30.9631 236.764 30.4815 237.173 30.1151C237.587 29.7443 238.062 29.4759 238.599 29.3097C239.136 29.1392 239.7 29.054 240.293 29.054C240.685 29.054 241.1 29.1009 241.539 29.1946C241.982 29.2841 242.396 29.4503 242.779 29.6932C243.167 29.9361 243.485 30.2834 243.732 30.7351C243.979 31.1825 244.102 31.7642 244.102 32.4801V39H242.236V37.6577H242.159C242.036 37.9048 241.85 38.1477 241.603 38.3864C241.356 38.625 241.039 38.8232 240.651 38.9808C240.263 39.1385 239.798 39.2173 239.257 39.2173ZM239.673 37.6832C240.201 37.6832 240.653 37.5788 241.028 37.37C241.407 37.1612 241.695 36.8885 241.891 36.5518C242.091 36.2109 242.191 35.8466 242.191 35.4588V34.1932C242.123 34.2614 241.991 34.3253 241.795 34.3849C241.603 34.4403 241.384 34.4893 241.137 34.532C240.889 34.5703 240.649 34.6065 240.414 34.6406C240.18 34.6705 239.984 34.696 239.826 34.7173C239.455 34.7642 239.117 34.843 238.81 34.9538C238.507 35.0646 238.264 35.2244 238.081 35.4332C237.902 35.6378 237.813 35.9105 237.813 36.2514C237.813 36.7244 237.987 37.0824 238.337 37.3253C238.686 37.5639 239.132 37.6832 239.673 37.6832ZM250.784 39.1982C249.833 39.1982 249.015 38.983 248.329 38.5526C247.647 38.1179 247.123 37.5192 246.757 36.7564C246.39 35.9936 246.207 35.12 246.207 34.1357C246.207 33.1385 246.395 32.2585 246.77 31.4957C247.145 30.7287 247.673 30.13 248.355 29.6996C249.037 29.2692 249.84 29.054 250.765 29.054C251.51 29.054 252.175 29.1925 252.759 29.4695C253.343 29.7422 253.814 30.1257 254.172 30.62C254.534 31.1143 254.749 31.6918 254.817 32.3523H252.957C252.855 31.892 252.62 31.4957 252.254 31.1634C251.892 30.831 251.406 30.6648 250.797 30.6648C250.264 30.6648 249.797 30.8054 249.397 31.0866C249 31.3636 248.691 31.7599 248.47 32.2756C248.248 32.7869 248.137 33.392 248.137 34.0909C248.137 34.8068 248.246 35.4247 248.463 35.9446C248.681 36.4645 248.988 36.8672 249.384 37.1527C249.784 37.4382 250.255 37.581 250.797 37.581C251.159 37.581 251.487 37.5149 251.781 37.3828C252.079 37.2464 252.328 37.0526 252.529 36.8011C252.733 36.5497 252.876 36.2472 252.957 35.8935H254.817C254.749 36.5284 254.542 37.0952 254.197 37.5938C253.852 38.0923 253.39 38.4844 252.81 38.7699C252.235 39.0554 251.559 39.1982 250.784 39.1982ZM261.093 39.1982C260.125 39.1982 259.292 38.9915 258.593 38.5781C257.899 38.1605 257.362 37.5746 256.982 36.8203C256.607 36.0618 256.42 35.1733 256.42 34.1548C256.42 33.1491 256.607 32.2628 256.982 31.4957C257.362 30.7287 257.89 30.13 258.568 29.6996C259.249 29.2692 260.046 29.054 260.958 29.054C261.512 29.054 262.049 29.1456 262.569 29.3288C263.089 29.5121 263.556 29.7997 263.969 30.1918C264.382 30.5838 264.708 31.093 264.947 31.7195C265.186 32.3416 265.305 33.098 265.305 33.9886V34.6662H257.5V33.2344H263.432C263.432 32.7315 263.33 32.2862 263.125 31.8984C262.921 31.5064 262.633 31.1974 262.262 30.9716C261.896 30.7457 261.465 30.6328 260.971 30.6328C260.434 30.6328 259.965 30.7649 259.565 31.0291C259.169 31.2891 258.862 31.63 258.644 32.0518C258.431 32.4695 258.325 32.9233 258.325 33.4134V34.532C258.325 35.1882 258.44 35.7464 258.67 36.2067C258.904 36.6669 259.23 37.0185 259.648 37.2614C260.066 37.5 260.553 37.6193 261.112 37.6193C261.474 37.6193 261.804 37.5682 262.102 37.4659C262.401 37.3594 262.659 37.2017 262.876 36.9929C263.093 36.7841 263.259 36.5263 263.374 36.2195L265.183 36.5455C265.039 37.0781 264.779 37.5447 264.404 37.9453C264.033 38.3416 263.566 38.6506 263.004 38.8722C262.445 39.0895 261.808 39.1982 261.093 39.1982ZM267.579 39V25.9091H269.49V30.7734H269.605C269.716 30.5689 269.876 30.3324 270.085 30.0639C270.293 29.7955 270.583 29.5611 270.954 29.3608C271.325 29.1562 271.815 29.054 272.424 29.054C273.217 29.054 273.924 29.2543 274.546 29.6548C275.168 30.0554 275.656 30.6328 276.01 31.3871C276.368 32.1413 276.547 33.049 276.547 34.1101C276.547 35.1712 276.37 36.081 276.016 36.8395C275.663 37.5937 275.177 38.1754 274.559 38.5845C273.941 38.9893 273.236 39.1918 272.443 39.1918C271.847 39.1918 271.359 39.0916 270.979 38.8913C270.604 38.6911 270.31 38.4567 270.097 38.1882C269.884 37.9197 269.72 37.6811 269.605 37.4723H269.445V39H267.579ZM269.452 34.0909C269.452 34.7812 269.552 35.3864 269.752 35.9062C269.952 36.4261 270.242 36.8331 270.621 37.1271C271.001 37.4169 271.465 37.5618 272.015 37.5618C272.586 37.5618 273.063 37.4105 273.447 37.108C273.83 36.8011 274.12 36.3857 274.316 35.8615C274.516 35.3374 274.616 34.7472 274.616 34.0909C274.616 33.4432 274.518 32.8615 274.322 32.3459C274.131 31.8303 273.841 31.4233 273.453 31.125C273.07 30.8267 272.59 30.6776 272.015 30.6776C271.461 30.6776 270.992 30.8203 270.609 31.1058C270.229 31.3913 269.942 31.7898 269.746 32.3011C269.55 32.8125 269.452 33.4091 269.452 34.0909ZM282.829 39.1982C281.908 39.1982 281.105 38.9872 280.419 38.5653C279.733 38.1435 279.2 37.5533 278.821 36.7947C278.442 36.0362 278.252 35.1499 278.252 34.1357C278.252 33.1172 278.442 32.2266 278.821 31.4638C279.2 30.701 279.733 30.1087 280.419 29.6868C281.105 29.2649 281.908 29.054 282.829 29.054C283.749 29.054 284.552 29.2649 285.238 29.6868C285.925 30.1087 286.457 30.701 286.836 31.4638C287.216 32.2266 287.405 33.1172 287.405 34.1357C287.405 35.1499 287.216 36.0362 286.836 36.7947C286.457 37.5533 285.925 38.1435 285.238 38.5653C284.552 38.9872 283.749 39.1982 282.829 39.1982ZM282.835 37.5938C283.432 37.5938 283.926 37.4361 284.318 37.1207C284.71 36.8054 285 36.3857 285.187 35.8615C285.379 35.3374 285.475 34.7599 285.475 34.1293C285.475 33.5028 285.379 32.9276 285.187 32.4034C285 31.875 284.71 31.451 284.318 31.1314C283.926 30.8118 283.432 30.652 282.835 30.652C282.234 30.652 281.736 30.8118 281.339 31.1314C280.947 31.451 280.655 31.875 280.464 32.4034C280.276 32.9276 280.182 33.5028 280.182 34.1293C280.182 34.7599 280.276 35.3374 280.464 35.8615C280.655 36.3857 280.947 36.8054 281.339 37.1207C281.736 37.4361 282.234 37.5938 282.835 37.5938ZM293.674 39.1982C292.754 39.1982 291.951 38.9872 291.265 38.5653C290.578 38.1435 290.046 37.5533 289.667 36.7947C289.287 36.0362 289.098 35.1499 289.098 34.1357C289.098 33.1172 289.287 32.2266 289.667 31.4638C290.046 30.701 290.578 30.1087 291.265 29.6868C291.951 29.2649 292.754 29.054 293.674 29.054C294.595 29.054 295.398 29.2649 296.084 29.6868C296.77 30.1087 297.303 30.701 297.682 31.4638C298.061 32.2266 298.251 33.1172 298.251 34.1357C298.251 35.1499 298.061 36.0362 297.682 36.7947C297.303 37.5533 296.77 38.1435 296.084 38.5653C295.398 38.9872 294.595 39.1982 293.674 39.1982ZM293.681 37.5938C294.277 37.5938 294.772 37.4361 295.164 37.1207C295.556 36.8054 295.846 36.3857 296.033 35.8615C296.225 35.3374 296.321 34.7599 296.321 34.1293C296.321 33.5028 296.225 32.9276 296.033 32.4034C295.846 31.875 295.556 31.451 295.164 31.1314C294.772 30.8118 294.277 30.652 293.681 30.652C293.08 30.652 292.581 30.8118 292.185 31.1314C291.793 31.451 291.501 31.875 291.309 32.4034C291.122 32.9276 291.028 33.5028 291.028 34.1293C291.028 34.7599 291.122 35.3374 291.309 35.8615C291.501 36.3857 291.793 36.8054 292.185 37.1207C292.581 37.4361 293.08 37.5938 293.681 37.5938ZM302.142 35.6697L302.129 33.3366H302.462L306.374 29.1818H308.662L304.2 33.9119H303.9L302.142 35.6697ZM300.384 39V25.9091H302.296V39H300.384ZM306.585 39L303.069 34.3338L304.386 32.9979L308.931 39H306.585Z" fill="black"/>
<g clip-path="url(#clip0_1395_4267)">
<path d="M61 37C61 23.7452 50.2548 13 37 13C23.7452 13 13 23.7452 13 37C13 48.9789 21.7764 58.908 33.25 60.7084V43.9375H27.1562V37H33.25V31.7125C33.25 25.6975 36.8331 22.375 42.3152 22.375C44.9402 22.375 47.6875 22.8438 47.6875 22.8438V28.75H44.6613C41.68 28.75 40.75 30.6002 40.75 32.5V37H47.4062L46.3422 43.9375H40.75V60.7084C52.2236 58.908 61 48.9789 61 37Z" fill="#1877F2"/>
<path d="M46.3422 43.9375L47.4062 37H40.75V32.5C40.75 30.602 41.68 28.75 44.6613 28.75H47.6875V22.8438C47.6875 22.8438 44.9411 22.375 42.3152 22.375C36.8331 22.375 33.25 25.6975 33.25 31.7125V37H27.1562V43.9375H33.25V60.7084C35.7349 61.0972 38.2651 61.0972 40.75 60.7084V43.9375H46.3422Z" fill="white"/>
</g>
<defs>
<clipPath id="clip0_1395_4267">
<rect width="48" height="48" fill="white" transform="translate(13 13)"/>
</clipPath>
</defs>
</svg>
