<svg width="310" height="73" viewBox="0 0 310 73" fill="none" xmlns="http://www.w3.org/2000/svg">
<rect width="310" height="73" rx="8" fill="white"/>
<g clip-path="url(#clip0_1395_4235)">
<path d="M58.532 37.553C58.532 35.9215 58.3997 34.2813 58.1175 32.6763H35.48V41.9182H48.4434C47.9055 44.8989 46.177 47.5357 43.6461 49.2113V55.208H51.3801C55.9217 51.0279 58.532 44.8548 58.532 37.553Z" fill="#4285F4"/>
<path d="M35.48 61.0016C41.9529 61.0016 47.4116 58.8764 51.3888 55.2078L43.6549 49.2111C41.5031 50.675 38.7252 51.5039 35.4888 51.5039C29.2275 51.5039 23.9187 47.2798 22.0139 41.6006H14.033V47.7825C18.1072 55.8868 26.4056 61.0016 35.48 61.0016Z" fill="#34A853"/>
<path d="M22.0051 41.6004C20.9997 38.6197 20.9997 35.3921 22.0051 32.4114V26.2295H14.033C10.629 33.011 10.629 41.0008 14.033 47.7823L22.0051 41.6004Z" fill="#FBBC04"/>
<path d="M35.48 22.4993C38.9016 22.4464 42.2086 23.7339 44.6866 26.0973L51.5387 19.2452C47.2 15.171 41.4414 12.9311 35.48 13.0016C26.4055 13.0016 18.1072 18.1164 14.033 26.2296L22.005 32.4115C23.901 26.7235 29.2187 22.4993 35.48 22.4993Z" fill="#EA4335"/>
</g>
<path d="M85.6498 39H82.4154V37.2741H85.5411C86.5383 37.2741 87.3671 37.0866 88.0276 36.7116C88.6881 36.3324 89.1824 35.7848 89.5106 35.0689C89.8387 34.3487 90.0028 33.4709 90.0028 32.4354C90.0028 31.4084 89.8387 30.5369 89.5106 29.821C89.1867 29.1051 88.703 28.5618 88.0596 28.1911C87.4161 27.8203 86.6171 27.6349 85.6626 27.6349H82.3451V25.9091H85.784C87.0667 25.9091 88.1682 26.1712 89.0887 26.6953C90.0091 27.2152 90.7144 27.9631 91.2045 28.9389C91.6988 29.9105 91.9459 31.076 91.9459 32.4354C91.9459 33.799 91.6966 34.9709 91.1981 35.951C90.7037 36.9311 89.9878 37.6854 89.0503 38.2138C88.1128 38.7379 86.9793 39 85.6498 39ZM83.387 25.9091V39H81.4118V25.9091H83.387ZM79.4559 32.8572V31.5405H85.3302V32.8572H79.4559ZM97.1059 39.2173C96.4838 39.2173 95.9213 39.1023 95.4184 38.8722C94.9156 38.6378 94.5171 38.299 94.2231 37.8558C93.9333 37.4126 93.7884 36.8693 93.7884 36.2259C93.7884 35.6719 93.895 35.2159 94.108 34.858C94.3211 34.5 94.6088 34.2166 94.971 34.0078C95.3332 33.799 95.738 33.6413 96.1855 33.5348C96.6329 33.4283 97.0889 33.3473 97.5534 33.2919C98.1414 33.2237 98.6187 33.1683 98.9852 33.1257C99.3517 33.0788 99.618 33.0043 99.7842 32.902C99.9504 32.7997 100.033 32.6335 100.033 32.4034V32.3587C100.033 31.8004 99.8758 31.3679 99.5605 31.0611C99.2494 30.7543 98.7849 30.6009 98.167 30.6009C97.5235 30.6009 97.0164 30.7436 96.6457 31.0291C96.2792 31.3104 96.0257 31.6236 95.885 31.9688L94.0889 31.5597C94.3019 30.9631 94.613 30.4815 95.0221 30.1151C95.4355 29.7443 95.9106 29.4759 96.4475 29.3097C96.9845 29.1392 97.5491 29.054 98.1414 29.054C98.5335 29.054 98.949 29.1009 99.3879 29.1946C99.8311 29.2841 100.244 29.4503 100.628 29.6932C101.016 29.9361 101.333 30.2834 101.58 30.7351C101.828 31.1825 101.951 31.7642 101.951 32.4801V39H100.085V37.6577H100.008C99.8843 37.9048 99.699 38.1477 99.4518 38.3864C99.2046 38.625 98.8872 38.8232 98.4994 38.9808C98.1116 39.1385 97.6471 39.2173 97.1059 39.2173ZM97.5214 37.6832C98.0498 37.6832 98.5015 37.5788 98.8765 37.37C99.2558 37.1612 99.5434 36.8885 99.7394 36.5518C99.9397 36.2109 100.04 35.8466 100.04 35.4588V34.1932C99.9717 34.2614 99.8396 34.3253 99.6436 34.3849C99.4518 34.4403 99.2323 34.4893 98.9852 34.532C98.738 34.5703 98.4972 34.6065 98.2629 34.6406C98.0285 34.6705 97.8325 34.696 97.6748 34.7173C97.3041 34.7642 96.9653 34.843 96.6585 34.9538C96.3559 35.0646 96.113 35.2244 95.9298 35.4332C95.7508 35.6378 95.6613 35.9105 95.6613 36.2514C95.6613 36.7244 95.836 37.0824 96.1855 37.3253C96.5349 37.5639 96.9802 37.6832 97.5214 37.6832ZM99.4965 25.858H101.069C101.069 26.5781 100.813 27.1641 100.302 27.6158C99.7948 28.0632 99.1088 28.2869 98.2437 28.2869C97.3829 28.2869 96.699 28.0632 96.1919 27.6158C95.6847 27.1641 95.4312 26.5781 95.4312 25.858H96.9972C96.9972 26.1776 97.091 26.4609 97.2785 26.7081C97.466 26.951 97.7877 27.0724 98.2437 27.0724C98.6911 27.0724 99.0107 26.951 99.2025 26.7081C99.3985 26.4652 99.4965 26.1818 99.4965 25.858ZM106.408 33.1705V39H104.497V29.1818H106.331V30.7798H106.453C106.679 30.2599 107.032 29.8423 107.514 29.527C108 29.2116 108.611 29.054 109.348 29.054C110.017 29.054 110.603 29.1946 111.106 29.4759C111.609 29.7528 111.999 30.1662 112.276 30.7159C112.553 31.2656 112.691 31.9453 112.691 32.755V39H110.78V32.9851C110.78 32.2734 110.595 31.7173 110.224 31.3168C109.853 30.9119 109.344 30.7095 108.696 30.7095C108.253 30.7095 107.859 30.8054 107.514 30.9972C107.173 31.1889 106.902 31.4702 106.702 31.8409C106.506 32.2074 106.408 32.6506 106.408 33.1705ZM119.371 42.8864C118.591 42.8864 117.92 42.7841 117.358 42.5795C116.799 42.375 116.343 42.1044 115.99 41.7678C115.636 41.4311 115.372 41.0625 115.197 40.6619L116.84 39.9844C116.955 40.1719 117.108 40.37 117.3 40.5788C117.496 40.7919 117.76 40.973 118.093 41.1222C118.429 41.2713 118.862 41.3459 119.39 41.3459C120.115 41.3459 120.713 41.169 121.186 40.8153C121.659 40.4659 121.896 39.9077 121.896 39.1406V37.2102H121.774C121.659 37.419 121.493 37.6513 121.276 37.907C121.063 38.1626 120.769 38.3842 120.394 38.5717C120.019 38.7592 119.531 38.853 118.93 38.853C118.154 38.853 117.456 38.6719 116.833 38.3097C116.215 37.9432 115.725 37.4041 115.363 36.6925C115.005 35.9766 114.826 35.0966 114.826 34.0526C114.826 33.0085 115.003 32.1136 115.357 31.3679C115.715 30.6222 116.205 30.0511 116.827 29.6548C117.449 29.2543 118.154 29.054 118.943 29.054C119.552 29.054 120.044 29.1562 120.419 29.3608C120.794 29.5611 121.086 29.7955 121.295 30.0639C121.508 30.3324 121.672 30.5689 121.787 30.7734H121.928V29.1818H123.801V39.2173C123.801 40.0611 123.605 40.7536 123.213 41.2947C122.821 41.8359 122.29 42.2365 121.621 42.4964C120.956 42.7564 120.206 42.8864 119.371 42.8864ZM119.352 37.2678C119.902 37.2678 120.366 37.1399 120.745 36.8842C121.129 36.6243 121.419 36.2536 121.615 35.772C121.815 35.2862 121.915 34.7045 121.915 34.027C121.915 33.3665 121.817 32.7848 121.621 32.282C121.425 31.7791 121.137 31.3871 120.758 31.1058C120.379 30.8203 119.91 30.6776 119.352 30.6776C118.777 30.6776 118.297 30.8267 117.914 31.125C117.53 31.419 117.24 31.8196 117.044 32.3267C116.853 32.8338 116.757 33.4006 116.757 34.027C116.757 34.6705 116.855 35.2351 117.051 35.7209C117.247 36.2067 117.536 36.5859 117.92 36.8587C118.308 37.1314 118.785 37.2678 119.352 37.2678ZM133.039 33.1705V39H131.128V29.1818H132.962V30.7798H133.084C133.309 30.2599 133.663 29.8423 134.145 29.527C134.63 29.2116 135.242 29.054 135.979 29.054C136.648 29.054 137.234 29.1946 137.737 29.4759C138.24 29.7528 138.63 30.1662 138.907 30.7159C139.184 31.2656 139.322 31.9453 139.322 32.755V39H137.411V32.9851C137.411 32.2734 137.226 31.7173 136.855 31.3168C136.484 30.9119 135.975 30.7095 135.327 30.7095C134.884 30.7095 134.49 30.8054 134.145 30.9972C133.804 31.1889 133.533 31.4702 133.333 31.8409C133.137 32.2074 133.039 32.6506 133.039 33.1705ZM143.797 33.1705V39H141.885V25.9091H143.771V30.7798H143.892C144.123 30.2514 144.474 29.8317 144.947 29.5206C145.42 29.2095 146.038 29.054 146.801 29.054C147.474 29.054 148.062 29.1925 148.565 29.4695C149.072 29.7464 149.464 30.1598 149.741 30.7095C150.022 31.255 150.163 31.9368 150.163 32.755V39H148.252V32.9851C148.252 32.2649 148.066 31.7067 147.696 31.3104C147.325 30.9098 146.809 30.7095 146.149 30.7095C145.697 30.7095 145.292 30.8054 144.934 30.9972C144.581 31.1889 144.302 31.4702 144.097 31.8409C143.897 32.2074 143.797 32.6506 143.797 33.1705ZM155.571 39.2173C154.949 39.2173 154.386 39.1023 153.883 38.8722C153.38 38.6378 152.982 38.299 152.688 37.8558C152.398 37.4126 152.253 36.8693 152.253 36.2259C152.253 35.6719 152.36 35.2159 152.573 34.858C152.786 34.5 153.074 34.2166 153.436 34.0078C153.798 33.799 154.203 33.6413 154.65 33.5348C155.098 33.4283 155.554 33.3473 156.018 33.2919C156.606 33.2237 157.084 33.1683 157.45 33.1257C157.816 33.0788 158.083 33.0043 158.249 32.902C158.415 32.7997 158.498 32.6335 158.498 32.4034V32.3587C158.498 31.8004 158.341 31.3679 158.025 31.0611C157.714 30.7543 157.25 30.6009 156.632 30.6009C155.988 30.6009 155.481 30.7436 155.111 31.0291C154.744 31.3104 154.491 31.6236 154.35 31.9688L152.554 31.5597C152.767 30.9631 153.078 30.4815 153.487 30.1151C153.9 29.7443 154.375 29.4759 154.912 29.3097C155.449 29.1392 156.014 29.054 156.606 29.054C156.998 29.054 157.414 29.1009 157.853 29.1946C158.296 29.2841 158.709 29.4503 159.093 29.6932C159.481 29.9361 159.798 30.2834 160.045 30.7351C160.292 31.1825 160.416 31.7642 160.416 32.4801V39H158.549V37.6577H158.473C158.349 37.9048 158.164 38.1477 157.917 38.3864C157.669 38.625 157.352 38.8232 156.964 38.9808C156.576 39.1385 156.112 39.2173 155.571 39.2173ZM155.986 37.6832C156.515 37.6832 156.966 37.5788 157.341 37.37C157.721 37.1612 158.008 36.8885 158.204 36.5518C158.405 36.2109 158.505 35.8466 158.505 35.4588V34.1932C158.437 34.2614 158.304 34.3253 158.108 34.3849C157.917 34.4403 157.697 34.4893 157.45 34.532C157.203 34.5703 156.962 34.6065 156.728 34.6406C156.493 34.6705 156.297 34.696 156.14 34.7173C155.769 34.7642 155.43 34.843 155.123 34.9538C154.821 35.0646 154.578 35.2244 154.395 35.4332C154.216 35.6378 154.126 35.9105 154.126 36.2514C154.126 36.7244 154.301 37.0824 154.65 37.3253C155 37.5639 155.445 37.6832 155.986 37.6832ZM158.019 28.0057L156.709 26.2926L155.392 28.0057H153.666V27.9098L155.91 25.1996H157.501L159.751 27.9098V28.0057H158.019ZM156.619 42.3878C156.291 42.3878 156.008 42.277 155.769 42.0554C155.53 41.8338 155.411 41.5653 155.411 41.25C155.411 40.9347 155.53 40.6662 155.769 40.4446C156.008 40.223 156.291 40.1122 156.619 40.1122C156.951 40.1122 157.235 40.223 157.469 40.4446C157.708 40.6662 157.827 40.9347 157.827 41.25C157.827 41.5653 157.708 41.8338 157.469 42.0554C157.235 42.277 156.951 42.3878 156.619 42.3878ZM162.962 42.6818V29.1818H164.828V30.7734H164.988C165.099 30.5689 165.258 30.3324 165.467 30.0639C165.676 29.7955 165.966 29.5611 166.337 29.3608C166.707 29.1562 167.197 29.054 167.807 29.054C168.599 29.054 169.307 29.2543 169.929 29.6548C170.551 30.0554 171.039 30.6328 171.393 31.3871C171.751 32.1413 171.93 33.049 171.93 34.1101C171.93 35.1712 171.753 36.081 171.399 36.8395C171.045 37.5937 170.56 38.1754 169.942 38.5845C169.324 38.9893 168.619 39.1918 167.826 39.1918C167.229 39.1918 166.741 39.0916 166.362 38.8913C165.987 38.6911 165.693 38.4567 165.48 38.1882C165.267 37.9197 165.103 37.6811 164.988 37.4723H164.873V42.6818H162.962ZM164.834 34.0909C164.834 34.7812 164.935 35.3864 165.135 35.9062C165.335 36.4261 165.625 36.8331 166.004 37.1271C166.383 37.4169 166.848 37.5618 167.398 37.5618C167.969 37.5618 168.446 37.4105 168.829 37.108C169.213 36.8011 169.503 36.3857 169.699 35.8615C169.899 35.3374 169.999 34.7472 169.999 34.0909C169.999 33.4432 169.901 32.8615 169.705 32.3459C169.513 31.8303 169.224 31.4233 168.836 31.125C168.452 30.8267 167.973 30.6776 167.398 30.6776C166.844 30.6776 166.375 30.8203 165.991 31.1058C165.612 31.3913 165.324 31.7898 165.128 32.3011C164.932 32.8125 164.834 33.4091 164.834 34.0909ZM178.988 39V25.9091H180.899V30.7734H181.014C181.125 30.5689 181.285 30.3324 181.494 30.0639C181.703 29.7955 181.992 29.5611 182.363 29.3608C182.734 29.1562 183.224 29.054 183.833 29.054C184.626 29.054 185.333 29.2543 185.955 29.6548C186.578 30.0554 187.065 30.6328 187.419 31.3871C187.777 32.1413 187.956 33.049 187.956 34.1101C187.956 35.1712 187.779 36.081 187.426 36.8395C187.072 37.5937 186.586 38.1754 185.968 38.5845C185.35 38.9893 184.645 39.1918 183.852 39.1918C183.256 39.1918 182.768 39.0916 182.389 38.8913C182.014 38.6911 181.72 38.4567 181.506 38.1882C181.293 37.9197 181.129 37.6811 181.014 37.4723H180.854V39H178.988ZM180.861 34.0909C180.861 34.7812 180.961 35.3864 181.161 35.9062C181.362 36.4261 181.651 36.8331 182.031 37.1271C182.41 37.4169 182.874 37.5618 183.424 37.5618C183.995 37.5618 184.472 37.4105 184.856 37.108C185.239 36.8011 185.529 36.3857 185.725 35.8615C185.926 35.3374 186.026 34.7472 186.026 34.0909C186.026 33.4432 185.928 32.8615 185.732 32.3459C185.54 31.8303 185.25 31.4233 184.862 31.125C184.479 30.8267 183.999 30.6776 183.424 30.6776C182.87 30.6776 182.401 30.8203 182.018 31.1058C181.639 31.3913 181.351 31.7898 181.155 32.3011C180.959 32.8125 180.861 33.4091 180.861 34.0909ZM192.959 39.2173C192.337 39.2173 191.775 39.1023 191.272 38.8722C190.769 38.6378 190.371 38.299 190.077 37.8558C189.787 37.4126 189.642 36.8693 189.642 36.2259C189.642 35.6719 189.748 35.2159 189.962 34.858C190.175 34.5 190.462 34.2166 190.824 34.0078C191.187 33.799 191.592 33.6413 192.039 33.5348C192.486 33.4283 192.942 33.3473 193.407 33.2919C193.995 33.2237 194.472 33.1683 194.839 33.1257C195.205 33.0788 195.472 33.0043 195.638 32.902C195.804 32.7997 195.887 32.6335 195.887 32.4034V32.3587C195.887 31.8004 195.729 31.3679 195.414 31.0611C195.103 30.7543 194.638 30.6009 194.021 30.6009C193.377 30.6009 192.87 30.7436 192.499 31.0291C192.133 31.3104 191.879 31.6236 191.739 31.9688L189.942 31.5597C190.155 30.9631 190.467 30.4815 190.876 30.1151C191.289 29.7443 191.764 29.4759 192.301 29.3097C192.838 29.1392 193.403 29.054 193.995 29.054C194.387 29.054 194.802 29.1009 195.241 29.1946C195.685 29.2841 196.098 29.4503 196.481 29.6932C196.869 29.9361 197.187 30.2834 197.434 30.7351C197.681 31.1825 197.805 31.7642 197.805 32.4801V39H195.938V37.6577H195.861C195.738 37.9048 195.552 38.1477 195.305 38.3864C195.058 38.625 194.741 38.8232 194.353 38.9808C193.965 39.1385 193.501 39.2173 192.959 39.2173ZM193.375 37.6832C193.903 37.6832 194.355 37.5788 194.73 37.37C195.109 37.1612 195.397 36.8885 195.593 36.5518C195.793 36.2109 195.893 35.8466 195.893 35.4588V34.1932C195.825 34.2614 195.693 34.3253 195.497 34.3849C195.305 34.4403 195.086 34.4893 194.839 34.532C194.592 34.5703 194.351 34.6065 194.116 34.6406C193.882 34.6705 193.686 34.696 193.528 34.7173C193.158 34.7642 192.819 34.843 192.512 34.9538C192.209 35.0646 191.967 35.2244 191.783 35.4332C191.604 35.6378 191.515 35.9105 191.515 36.2514C191.515 36.7244 191.69 37.0824 192.039 37.3253C192.388 37.5639 192.834 37.6832 193.375 37.6832ZM195.356 26.1456H196.897C196.897 26.7081 196.641 27.1705 196.13 27.5327C195.623 27.8906 194.928 28.0696 194.046 28.0696C193.168 28.0696 192.474 27.8906 191.962 27.5327C191.455 27.1705 191.202 26.7081 191.202 26.1456H192.736C192.736 26.4098 192.834 26.642 193.03 26.8423C193.23 27.0426 193.569 27.1428 194.046 27.1428C194.515 27.1428 194.849 27.0426 195.05 26.8423C195.254 26.642 195.356 26.4098 195.356 26.1456ZM193.65 26.0178L192.167 24.3175H193.746L194.749 26.0178H193.65ZM202.261 33.1705V39H200.35V29.1818H202.185V30.7798H202.306C202.532 30.2599 202.886 29.8423 203.367 29.527C203.853 29.2116 204.465 29.054 205.202 29.054C205.871 29.054 206.457 29.1946 206.96 29.4759C207.462 29.7528 207.852 30.1662 208.129 30.7159C208.406 31.2656 208.545 31.9453 208.545 32.755V39H206.634V32.9851C206.634 32.2734 206.448 31.7173 206.078 31.3168C205.707 30.9119 205.198 30.7095 204.55 30.7095C204.107 30.7095 203.712 30.8054 203.367 30.9972C203.026 31.1889 202.756 31.4702 202.555 31.8409C202.359 32.2074 202.261 32.6506 202.261 33.1705ZM215.225 42.8864C214.445 42.8864 213.774 42.7841 213.211 42.5795C212.653 42.375 212.197 42.1044 211.843 41.7678C211.489 41.4311 211.225 41.0625 211.051 40.6619L212.693 39.9844C212.808 40.1719 212.962 40.37 213.153 40.5788C213.35 40.7919 213.614 40.973 213.946 41.1222C214.283 41.2713 214.715 41.3459 215.244 41.3459C215.968 41.3459 216.567 41.169 217.04 40.8153C217.513 40.4659 217.749 39.9077 217.749 39.1406V37.2102H217.628C217.513 37.419 217.347 37.6513 217.129 37.907C216.916 38.1626 216.622 38.3842 216.247 38.5717C215.872 38.7592 215.384 38.853 214.783 38.853C214.008 38.853 213.309 38.6719 212.687 38.3097C212.069 37.9432 211.579 37.4041 211.217 36.6925C210.859 35.9766 210.68 35.0966 210.68 34.0526C210.68 33.0085 210.857 32.1136 211.21 31.3679C211.568 30.6222 212.058 30.0511 212.68 29.6548C213.303 29.2543 214.008 29.054 214.796 29.054C215.406 29.054 215.898 29.1562 216.273 29.3608C216.648 29.5611 216.94 29.7955 217.149 30.0639C217.362 30.3324 217.526 30.5689 217.641 30.7734H217.781V29.1818H219.654V39.2173C219.654 40.0611 219.458 40.7536 219.066 41.2947C218.674 41.8359 218.144 42.2365 217.475 42.4964C216.81 42.7564 216.06 42.8864 215.225 42.8864ZM215.205 37.2678C215.755 37.2678 216.22 37.1399 216.599 36.8842C216.982 36.6243 217.272 36.2536 217.468 35.772C217.668 35.2862 217.769 34.7045 217.769 34.027C217.769 33.3665 217.671 32.7848 217.475 32.282C217.278 31.7791 216.991 31.3871 216.612 31.1058C216.232 30.8203 215.764 30.6776 215.205 30.6776C214.63 30.6776 214.151 30.8267 213.767 31.125C213.384 31.419 213.094 31.8196 212.898 32.3267C212.706 32.8338 212.61 33.4006 212.61 34.027C212.61 34.6705 212.708 35.2351 212.904 35.7209C213.1 36.2067 213.39 36.5859 213.774 36.8587C214.161 37.1314 214.639 37.2678 215.205 37.2678ZM235.994 30.0447C235.87 29.657 235.704 29.3097 235.495 29.0028C235.291 28.6918 235.046 28.4276 234.76 28.2102C234.475 27.9886 234.149 27.8203 233.782 27.7053C233.42 27.5902 233.022 27.5327 232.587 27.5327C231.85 27.5327 231.185 27.7223 230.593 28.1016C230 28.4808 229.532 29.0369 229.186 29.7699C228.845 30.4986 228.675 31.3913 228.675 32.4482C228.675 33.5092 228.848 34.4062 229.193 35.1392C229.538 35.8722 230.011 36.4283 230.612 36.8075C231.213 37.1868 231.897 37.3764 232.664 37.3764C233.375 37.3764 233.995 37.2315 234.524 36.9418C235.056 36.652 235.468 36.2429 235.757 35.7145C236.051 35.1818 236.198 34.5554 236.198 33.8352L236.71 33.9311H232.964V32.3011H238.11V33.7905C238.11 34.8899 237.875 35.8445 237.407 36.6541C236.942 37.4595 236.299 38.0817 235.476 38.5206C234.658 38.9595 233.72 39.179 232.664 39.179C231.479 39.179 230.439 38.9062 229.544 38.3608C228.654 37.8153 227.959 37.0419 227.46 36.0405C226.962 35.0348 226.713 33.8416 226.713 32.4609C226.713 31.4169 226.858 30.4794 227.147 29.6484C227.437 28.8175 227.844 28.1122 228.368 27.5327C228.897 26.9489 229.517 26.5036 230.228 26.1967C230.944 25.8857 231.726 25.7301 232.574 25.7301C233.282 25.7301 233.94 25.8345 234.549 26.0433C235.163 26.2521 235.708 26.5483 236.186 26.9318C236.667 27.3153 237.066 27.7713 237.381 28.2997C237.696 28.8239 237.909 29.4055 238.02 30.0447H235.994ZM244.599 39.1982C243.679 39.1982 242.875 38.9872 242.189 38.5653C241.503 38.1435 240.971 37.5533 240.591 36.7947C240.212 36.0362 240.022 35.1499 240.022 34.1357C240.022 33.1172 240.212 32.2266 240.591 31.4638C240.971 30.701 241.503 30.1087 242.189 29.6868C242.875 29.2649 243.679 29.054 244.599 29.054C245.52 29.054 246.323 29.2649 247.009 29.6868C247.695 30.1087 248.228 30.701 248.607 31.4638C248.986 32.2266 249.176 33.1172 249.176 34.1357C249.176 35.1499 248.986 36.0362 248.607 36.7947C248.228 37.5533 247.695 38.1435 247.009 38.5653C246.323 38.9872 245.52 39.1982 244.599 39.1982ZM244.606 37.5938C245.202 37.5938 245.696 37.4361 246.089 37.1207C246.481 36.8054 246.77 36.3857 246.958 35.8615C247.15 35.3374 247.245 34.7599 247.245 34.1293C247.245 33.5028 247.15 32.9276 246.958 32.4034C246.77 31.875 246.481 31.451 246.089 31.1314C245.696 30.8118 245.202 30.652 244.606 30.652C244.005 30.652 243.506 30.8118 243.11 31.1314C242.718 31.451 242.426 31.875 242.234 32.4034C242.047 32.9276 241.953 33.5028 241.953 34.1293C241.953 34.7599 242.047 35.3374 242.234 35.8615C242.426 36.3857 242.718 36.8054 243.11 37.1207C243.506 37.4361 244.005 37.5938 244.606 37.5938ZM255.445 39.1982C254.524 39.1982 253.721 38.9872 253.035 38.5653C252.349 38.1435 251.816 37.5533 251.437 36.7947C251.058 36.0362 250.868 35.1499 250.868 34.1357C250.868 33.1172 251.058 32.2266 251.437 31.4638C251.816 30.701 252.349 30.1087 253.035 29.6868C253.721 29.2649 254.524 29.054 255.445 29.054C256.365 29.054 257.169 29.2649 257.855 29.6868C258.541 30.1087 259.073 30.701 259.453 31.4638C259.832 32.2266 260.022 33.1172 260.022 34.1357C260.022 35.1499 259.832 36.0362 259.453 36.7947C259.073 37.5533 258.541 38.1435 257.855 38.5653C257.169 38.9872 256.365 39.1982 255.445 39.1982ZM255.451 37.5938C256.048 37.5938 256.542 37.4361 256.934 37.1207C257.326 36.8054 257.616 36.3857 257.804 35.8615C257.995 35.3374 258.091 34.7599 258.091 34.1293C258.091 33.5028 257.995 32.9276 257.804 32.4034C257.616 31.875 257.326 31.451 256.934 31.1314C256.542 30.8118 256.048 30.652 255.451 30.652C254.85 30.652 254.352 30.8118 253.956 31.1314C253.563 31.451 253.272 31.875 253.08 32.4034C252.892 32.9276 252.799 33.5028 252.799 34.1293C252.799 34.7599 252.892 35.3374 253.08 35.8615C253.272 36.3857 253.563 36.8054 253.956 37.1207C254.352 37.4361 254.85 37.5938 255.451 37.5938ZM266.271 42.8864C265.492 42.8864 264.82 42.7841 264.258 42.5795C263.7 42.375 263.244 42.1044 262.89 41.7678C262.536 41.4311 262.272 41.0625 262.097 40.6619L263.74 39.9844C263.855 40.1719 264.009 40.37 264.2 40.5788C264.396 40.7919 264.661 40.973 264.993 41.1222C265.33 41.2713 265.762 41.3459 266.291 41.3459C267.015 41.3459 267.614 41.169 268.087 40.8153C268.56 40.4659 268.796 39.9077 268.796 39.1406V37.2102H268.675C268.56 37.419 268.394 37.6513 268.176 37.907C267.963 38.1626 267.669 38.3842 267.294 38.5717C266.919 38.7592 266.431 38.853 265.83 38.853C265.055 38.853 264.356 38.6719 263.734 38.3097C263.116 37.9432 262.626 37.4041 262.264 36.6925C261.906 35.9766 261.727 35.0966 261.727 34.0526C261.727 33.0085 261.903 32.1136 262.257 31.3679C262.615 30.6222 263.105 30.0511 263.727 29.6548C264.35 29.2543 265.055 29.054 265.843 29.054C266.453 29.054 266.945 29.1562 267.32 29.3608C267.695 29.5611 267.987 29.7955 268.195 30.0639C268.408 30.3324 268.573 30.5689 268.688 30.7734H268.828V29.1818H270.701V39.2173C270.701 40.0611 270.505 40.7536 270.113 41.2947C269.721 41.8359 269.19 42.2365 268.521 42.4964C267.857 42.7564 267.107 42.8864 266.271 42.8864ZM266.252 37.2678C266.802 37.2678 267.266 37.1399 267.646 36.8842C268.029 36.6243 268.319 36.2536 268.515 35.772C268.715 35.2862 268.815 34.7045 268.815 34.027C268.815 33.3665 268.717 32.7848 268.521 32.282C268.325 31.7791 268.038 31.3871 267.658 31.1058C267.279 30.8203 266.81 30.6776 266.252 30.6776C265.677 30.6776 265.198 30.8267 264.814 31.125C264.43 31.419 264.141 31.8196 263.945 32.3267C263.753 32.8338 263.657 33.4006 263.657 34.027C263.657 34.6705 263.755 35.2351 263.951 35.7209C264.147 36.2067 264.437 36.5859 264.82 36.8587C265.208 37.1314 265.685 37.2678 266.252 37.2678ZM275.176 25.9091V39H273.264V25.9091H275.176ZM281.978 39.1982C281.011 39.1982 280.178 38.9915 279.479 38.5781C278.784 38.1605 278.247 37.5746 277.868 36.8203C277.493 36.0618 277.306 35.1733 277.306 34.1548C277.306 33.1491 277.493 32.2628 277.868 31.4957C278.247 30.7287 278.776 30.13 279.453 29.6996C280.135 29.2692 280.932 29.054 281.844 29.054C282.398 29.054 282.935 29.1456 283.455 29.3288C283.975 29.5121 284.441 29.7997 284.855 30.1918C285.268 30.5838 285.594 31.093 285.833 31.7195C286.071 32.3416 286.191 33.098 286.191 33.9886V34.6662H278.386V33.2344H284.318C284.318 32.7315 284.215 32.2862 284.011 31.8984C283.806 31.5064 283.519 31.1974 283.148 30.9716C282.782 30.7457 282.351 30.6328 281.857 30.6328C281.32 30.6328 280.851 30.7649 280.451 31.0291C280.054 31.2891 279.747 31.63 279.53 32.0518C279.317 32.4695 279.21 32.9233 279.21 33.4134V34.532C279.21 35.1882 279.326 35.7464 279.556 36.2067C279.79 36.6669 280.116 37.0185 280.534 37.2614C280.951 37.5 281.439 37.6193 281.997 37.6193C282.36 37.6193 282.69 37.5682 282.988 37.4659C283.286 37.3594 283.544 37.2017 283.762 36.9929C283.979 36.7841 284.145 36.5263 284.26 36.2195L286.069 36.5455C285.924 37.0781 285.664 37.5447 285.289 37.9453C284.919 38.3416 284.452 38.6506 283.889 38.8722C283.331 39.0895 282.694 39.1982 281.978 39.1982Z" fill="black"/>
<defs>
<clipPath id="clip0_1395_4235">
<rect width="48" height="48" fill="white" transform="translate(11 13)"/>
</clipPath>
</defs>
</svg>
