<svg width="21" height="21" viewBox="0 0 21 21" fill="none" xmlns="http://www.w3.org/2000/svg">
<path d="M20.5939 9.79289L18.5915 7.79286L11.5829 0.792789C11.3951 0.605316 11.1405 0.5 10.875 0.5C10.6095 0.5 10.3549 0.605316 10.1671 0.792789L3.15852 7.79286L1.15606 9.79289C0.973675 9.98149 0.872757 10.2341 0.875038 10.4963C0.877319 10.7585 0.982617 11.0093 1.16825 11.1947C1.35389 11.3801 1.60501 11.4853 1.86753 11.4876C2.13005 11.4899 2.38296 11.3891 2.5718 11.2069L2.86516 10.9139V18.5C2.86516 19.0304 3.07613 19.5391 3.45166 19.9142C3.8272 20.2893 4.33653 20.5 4.86762 20.5H7.87131C8.13685 20.5 8.39152 20.3946 8.57929 20.2071C8.76705 20.0196 8.87254 19.7652 8.87254 19.5V15.4999C8.87254 15.2347 8.97803 14.9804 9.16579 14.7928C9.35356 14.6053 9.60823 14.4999 9.87377 14.4999H11.8762C12.1418 14.4999 12.3964 14.6053 12.5842 14.7928C12.772 14.9804 12.8775 15.2347 12.8775 15.4999V19.5C12.8775 19.7652 12.9829 20.0196 13.1707 20.2071C13.3585 20.3946 13.6131 20.5 13.8787 20.5H16.8824C17.4135 20.5 17.9228 20.2893 18.2983 19.9142C18.6739 19.5391 18.8848 19.0304 18.8848 18.5V10.9139L19.1782 11.2069C19.367 11.3891 19.6199 11.4899 19.8825 11.4876C20.145 11.4853 20.3961 11.3801 20.5817 11.1947C20.7674 11.0093 20.8727 10.7585 20.875 10.4963C20.8772 10.2341 20.7763 9.98149 20.5939 9.79289Z" fill="#1A56DB"/>
</svg>
