<svg width="17" height="21" viewBox="0 0 17 21" fill="none" xmlns="http://www.w3.org/2000/svg">
<path d="M5.12523 5.5V0.63C4.63727 0.764979 4.19209 1.02286 3.83223 1.379L1.00423 4.207C0.648806 4.56739 0.391036 5.01238 0.255234 5.5H5.12523Z" fill="#6B7280"/>
<path d="M14.1912 0.5H7.12523V5.5C7.12523 6.03043 6.91452 6.53914 6.53945 6.91421C6.16437 7.28929 5.65567 7.5 5.12523 7.5H0.125234V18.5C0.117206 19.0215 0.316287 19.5248 0.678829 19.8998C1.04137 20.2747 1.53779 20.4905 2.05923 20.5H14.1912C14.7127 20.4905 15.2091 20.2747 15.5716 19.8998C15.9342 19.5248 16.1333 19.0215 16.1252 18.5V2.5C16.1333 1.97853 15.9342 1.47515 15.5716 1.10024C15.2091 0.725324 14.7127 0.509469 14.1912 0.5ZM12.1252 6.5H10.1252V8.5H12.1252V10.5H10.1252V12.5H12.1252V14.5H10.1252V16.5H12.1252V18.5H10.1252V16.5H8.12523V14.5H10.1252V12.5H8.12523V10.5H10.1252V8.5H8.12523V6.5H10.1252V4.5H8.12523V2.5H10.1252V4.5H12.1252V6.5Z" fill="#6B7280"/>
</svg>
