<svg width="116" height="32" viewBox="0 0 116 32" fill="none" xmlns="http://www.w3.org/2000/svg">
<mask id="mask0_1397_135" style="mask-type:luminance" maskUnits="userSpaceOnUse" x="0" y="0" width="115" height="31">
<path d="M114.786 0.400391H0V30.9284H114.786V0.400391Z" fill="white"/>
</mask>
<g mask="url(#mask0_1397_135)">
<path d="M59.0059 3.26562L48.1905 29.9275H41.0084L30.193 3.26562H36.5301L44.6417 24.4653L52.711 3.26562H59.0059Z" fill="#35AE94"/>
<path d="M61.0312 19.27C61.0312 17.1309 61.496 15.2337 62.4254 13.5786C63.383 11.9233 64.6645 10.6501 66.27 9.75879C67.9035 8.86751 69.7201 8.42191 71.7199 8.42191C73.4661 8.42191 74.9871 8.74015 76.2826 9.37679C77.6064 10.0134 78.6626 10.8156 79.4512 11.7833V8.76567H85.408V29.9271H79.4512V26.8331C78.6908 27.8262 77.6345 28.6538 76.2826 29.316C74.9588 29.9525 73.4239 30.2709 71.6776 30.2709C69.7061 30.2709 67.9035 29.8125 66.27 28.8958C64.6645 27.979 63.383 26.693 62.4254 25.0378C61.496 23.3571 61.0312 21.4345 61.0312 19.27ZM79.4512 19.3464C79.4512 18.0477 79.1696 16.9399 78.6062 16.0232C78.0429 15.081 77.2824 14.368 76.3248 13.8841C75.3672 13.3748 74.3393 13.1201 73.2408 13.1201C72.1424 13.1201 71.1284 13.3622 70.1989 13.8459C69.2695 14.3298 68.5091 15.0428 67.9176 15.985C67.3543 16.9018 67.0726 17.9967 67.0726 19.27C67.0726 20.5433 67.3543 21.6637 67.9176 22.6313C68.5091 23.5736 69.2695 24.2993 70.1989 24.8086C71.1565 25.3179 72.1705 25.5726 73.2408 25.5726C74.3393 25.5726 75.3672 25.3306 76.3248 24.8468C77.2824 24.3376 78.0429 23.6245 78.6062 22.7077C79.1696 21.7655 79.4512 20.6451 79.4512 19.3464ZM80.8032 1.20254C80.8032 3.03602 80.1976 4.4748 78.9864 5.51886C77.7754 6.56293 76.1277 7.08496 74.0435 7.08496C72.0156 7.08496 70.382 6.56293 69.1428 5.51886C67.9317 4.44933 67.3261 2.99782 67.3261 1.16434V0.400391H70.4524C70.4524 1.26621 70.72 1.92829 71.2552 2.38667C71.7903 2.81957 72.7197 3.03602 74.0435 3.03602C75.3672 3.03602 76.2968 2.81957 76.8318 2.38667C77.3669 1.92829 77.6345 1.26621 77.6345 0.400391H80.8032V1.20254Z" fill="#35AE94"/>
<path d="M104.154 8.45996C106.942 8.45996 109.196 9.26204 110.914 10.8664C112.632 12.4452 113.491 14.6607 113.491 17.5128V29.9269H107.577V18.2384C107.577 16.5578 107.112 15.2719 106.182 14.3806C105.253 13.4638 103.986 13.0054 102.38 13.0054C100.746 13.0054 99.4513 13.4638 98.4937 14.3806C97.5641 15.2719 97.0993 16.5578 97.0993 18.2384V29.9269H91.1841V8.76556H97.0993V11.4012C97.8881 10.4844 98.8873 9.7714 100.098 9.26204C101.338 8.72732 102.69 8.45996 104.154 8.45996Z" fill="#35AE94"/>
<path d="M13.6421 20.5745C13.3041 20.6575 12.9661 20.7266 12.6282 20.782C12.2902 20.8373 11.9379 20.8649 11.5719 20.8649C10.1635 20.8649 8.88251 20.616 7.72744 20.1182C6.5724 19.6204 5.58715 18.9427 4.77011 18.0853C3.95305 17.228 3.31933 16.2184 2.86895 15.0568C2.41858 13.8675 2.19299 12.6091 2.19299 11.2815C2.19299 9.76035 2.47438 8.39123 3.03795 7.17429C3.62941 5.92968 4.41777 4.86486 5.40382 3.97981C6.41776 3.09476 7.60069 2.41714 8.95258 1.94696C10.3045 1.44912 11.7688 1.2002 13.3463 1.2002C14.8952 1.2002 16.3459 1.44912 17.6979 1.94696C19.0777 2.41714 20.2607 3.09476 21.2467 3.97981C22.2606 4.86486 23.049 5.92968 23.6126 7.17429C24.204 8.39123 24.4998 9.76035 24.4998 11.2815C24.4998 12.3325 24.4009 13.3005 24.204 14.1856C24.0071 15.0429 23.7393 15.8589 23.4013 16.6332C23.0912 17.4076 22.711 18.1544 22.2607 18.8736C21.8382 19.565 21.3878 20.2841 20.9087 21.0308L14.3603 31.0707H6.629L13.6421 20.5745ZM8.53011 11.5304C8.53011 12.858 8.96699 13.9643 9.83979 14.8493C10.7414 15.7067 11.9099 16.1354 13.3463 16.1354C14.7828 16.1354 15.9379 15.7067 16.8107 14.8493C17.7123 13.9643 18.1626 12.858 18.1626 11.5304C18.1626 10.2028 17.7123 9.11027 16.8107 8.25295C15.9379 7.36789 14.7828 6.92537 13.3463 6.92537C11.9099 6.92537 10.7414 7.36789 9.83979 8.25295C8.96699 9.11027 8.53011 10.2028 8.53011 11.5304Z" fill="#FF8084"/>
</g>
</svg>
