<svg width="40" height="40" viewBox="0 0 40 40" fill="none" xmlns="http://www.w3.org/2000/svg">
<path d="M0 8C0 3.58172 3.58172 0 8 0H32C36.4183 0 40 3.58172 40 8V32C40 36.4183 36.4183 40 32 40H8C3.58172 40 0 36.4183 0 32V8Z" fill="#6C2BD9"/>
<path d="M16.746 27.3336C16.0712 27.3348 15.4113 27.1154 14.85 26.7034C14.2886 26.2914 13.8511 25.7052 13.5928 25.0192C13.3346 24.3332 13.2672 23.5782 13.3993 22.8501C13.5314 22.1219 13.8569 21.4532 14.3347 20.9289L17.0475 17.9444C17.6875 17.2416 18.5547 16.847 19.4588 16.847C20.3629 16.847 21.23 17.2416 21.87 17.9444C21.9988 18.0955 22.0691 18.2959 22.0661 18.503C22.063 18.7102 21.9868 18.9079 21.8536 19.0544C21.7205 19.2009 21.5407 19.2846 21.3525 19.2878C21.1642 19.291 20.9822 19.2135 20.8449 19.0716C20.4769 18.6679 19.9784 18.4411 19.4588 18.4411C18.9391 18.4411 18.4406 18.6679 18.0726 19.0716L15.3598 22.057C14.9922 22.4616 14.7857 23.0103 14.7857 23.5824C14.7857 23.8657 14.8364 24.1462 14.9349 24.4079C15.0334 24.6697 15.1778 24.9075 15.3598 25.1078C15.5418 25.3081 15.7579 25.467 15.9958 25.5754C16.2336 25.6838 16.4885 25.7396 16.746 25.7396C17.2659 25.7396 17.7645 25.5123 18.1321 25.1078L18.4837 24.7209C18.5512 24.6468 18.6314 24.5881 18.7196 24.5481C18.8077 24.5081 18.9022 24.4876 18.9975 24.4878C19.0929 24.488 19.1873 24.5088 19.2753 24.5492C19.3634 24.5895 19.4433 24.6485 19.5106 24.7228C19.5779 24.7972 19.6313 24.8854 19.6676 24.9824C19.7039 25.0794 19.7226 25.1834 19.7224 25.2883C19.7222 25.3932 19.7033 25.4971 19.6666 25.594C19.63 25.6909 19.5764 25.7789 19.5088 25.8529L19.1572 26.2399C18.8405 26.5879 18.4645 26.8638 18.0507 27.0515C17.6369 27.2392 17.1935 27.3351 16.746 27.3336Z" fill="white"/>
<path d="M20.547 23.1548C20.0992 23.1555 19.6556 23.059 19.2418 22.8706C18.828 22.6822 18.4521 22.4057 18.1357 22.057C18.0037 21.9065 17.9306 21.705 17.9322 21.4958C17.9339 21.2867 18.0101 21.0866 18.1445 20.9386C18.279 20.7907 18.4608 20.7068 18.6509 20.705C18.841 20.7032 19.0241 20.7836 19.1608 20.9289C19.5343 21.3212 20.0307 21.5401 20.547 21.5401C21.0632 21.5401 21.5597 21.3212 21.9331 20.9289L24.6452 17.9444C24.8276 17.7442 24.9723 17.5065 25.071 17.2448C25.1697 16.983 25.2206 16.7024 25.2206 16.419C25.2206 16.1356 25.1697 15.8549 25.071 15.5932C24.9723 15.3314 24.8276 15.0937 24.6452 14.8936C24.272 14.5011 23.7756 14.2822 23.2594 14.2822C22.7432 14.2822 22.2469 14.5011 21.8736 14.8936L21.3328 15.4887C21.1968 15.6383 21.0123 15.7223 20.82 15.7222C20.6277 15.7222 20.4433 15.638 20.3074 15.4883C20.1714 15.3386 20.0951 15.1356 20.0952 14.924C20.0952 14.7124 20.1717 14.5094 20.3077 14.3598L20.8485 13.7647C21.488 13.0615 22.3552 12.6666 23.2593 12.667C24.1633 12.6674 25.0302 13.0629 25.6692 13.7667C26.3082 14.4704 26.667 15.4247 26.6667 16.4196C26.6664 17.4144 26.3069 18.3684 25.6674 19.0716L22.9546 22.0562C22.6387 22.4046 22.2634 22.681 21.8502 22.8695C21.4371 23.058 20.9942 23.155 20.547 23.1548Z" fill="white"/>
</svg>
