<svg width="40" height="40" viewBox="0 0 40 40" fill="none" xmlns="http://www.w3.org/2000/svg">
<path d="M0 8C0 3.58172 3.58172 0 8 0H32C36.4183 0 40 3.58172 40 8V32C40 36.4183 36.4183 40 32 40H8C3.58172 40 0 36.4183 0 32V8Z" fill="#C81E1E"/>
<path d="M25.3333 16.14H22.6667V14.7365C22.6667 14.3643 22.5262 14.0073 22.2761 13.7441C22.0261 13.4809 21.687 13.333 21.3333 13.333H18.6667C18.313 13.333 17.9739 13.4809 17.7239 13.7441C17.4738 14.0073 17.3333 14.3643 17.3333 14.7365V16.14H14.6667C14.4899 16.14 14.3203 16.214 14.1953 16.3456C14.0702 16.4772 14 16.6557 14 16.8418C14 17.0279 14.0702 17.2064 14.1953 17.338C14.3203 17.4696 14.4899 17.5435 14.6667 17.5435H15.3333V25.2628C15.3333 25.6351 15.4738 25.9921 15.7239 26.2553C15.9739 26.5185 16.313 26.6663 16.6667 26.6663H23.3333C23.687 26.6663 24.0261 26.5185 24.2761 26.2553C24.5262 25.9921 24.6667 25.6351 24.6667 25.2628V17.5435H25.3333C25.5101 17.5435 25.6797 17.4696 25.8047 17.338C25.9298 17.2064 26 17.0279 26 16.8418C26 16.6557 25.9298 16.4772 25.8047 16.3456C25.6797 16.214 25.5101 16.14 25.3333 16.14ZM18.6667 14.7365H21.3333V16.14H18.6667V14.7365ZM19.3333 23.8593C19.3333 24.0454 19.2631 24.2239 19.1381 24.3555C19.013 24.4871 18.8435 24.5611 18.6667 24.5611C18.4899 24.5611 18.3203 24.4871 18.1953 24.3555C18.0702 24.2239 18 24.0454 18 23.8593V18.947C18 18.7609 18.0702 18.5824 18.1953 18.4508C18.3203 18.3192 18.4899 18.2453 18.6667 18.2453C18.8435 18.2453 19.013 18.3192 19.1381 18.4508C19.2631 18.5824 19.3333 18.7609 19.3333 18.947V23.8593ZM22 23.8593C22 24.0454 21.9298 24.2239 21.8047 24.3555C21.6797 24.4871 21.5101 24.5611 21.3333 24.5611C21.1565 24.5611 20.987 24.4871 20.8619 24.3555C20.7369 24.2239 20.6667 24.0454 20.6667 23.8593V18.947C20.6667 18.7609 20.7369 18.5824 20.8619 18.4508C20.987 18.3192 21.1565 18.2453 21.3333 18.2453C21.5101 18.2453 21.6797 18.3192 21.8047 18.4508C21.9298 18.5824 22 18.7609 22 18.947V23.8593Z" fill="white"/>
</svg>
