<svg width="48" height="48" viewBox="0 0 48 48" fill="none" xmlns="http://www.w3.org/2000/svg">
<path fill-rule="evenodd" clip-rule="evenodd" d="M4.05979 29.4263C4.27396 28.5224 5.15969 27.7896 6.04117 27.7896H41.9586C42.8387 27.7896 43.7255 28.5208 43.94 29.4263L47.9527 46.3633C48.1669 47.2673 47.6336 48.0001 46.7485 48.0001H1.25129C0.372036 48.0001 -0.167495 47.2688 0.0470495 46.3633L4.05979 29.4263Z" fill="#595959"/>
<path fill-rule="evenodd" clip-rule="evenodd" d="M6.8488 30.2939H41.1683L43.9447 43.8241H4.05481L6.8488 30.2939Z" fill="#B4DFFB"/>
<path fill-rule="evenodd" clip-rule="evenodd" d="M13.7018 32.0347H33.5079L35.5756 40.4557H11.634L13.7018 32.0347Z" fill="#4796E7"/>
<path fill-rule="evenodd" clip-rule="evenodd" d="M36.696 17.6844V7.5791H11.1583V17.6844C11.1583 19.0796 16.8751 20.2107 23.9272 20.2107C30.9792 20.2107 36.696 19.0796 36.696 17.6844Z" fill="#595959"/>
<path fill-rule="evenodd" clip-rule="evenodd" d="M4.77393 7.50063L24.5002 0L43.8945 7.50063L24.5002 13.7272L4.77393 7.50063Z" fill="#868686"/>
<path d="M15.9202 7.40403L15.6146 5.75098L9.56213 7.89582V21.9758H11.1582V9.28277L15.9202 7.40403Z" fill="#F1BE27"/>
<path d="M9.66991 20.7422L7.39307 25.4706L8.816 26.2336L11.0928 21.5051L9.66991 20.7422Z" fill="#FF462B"/>
<path d="M9.72339 21.5825L11.8071 25.8301L13.2245 25.0562L11.1407 20.8086L9.72339 21.5825Z" fill="#FF462B"/>
<path d="M9.65475 21.5532L9.65076 26.605L11.2469 26.6059L11.2509 21.5541L9.65475 21.5532Z" fill="#FF462B"/>
</svg>
