<svg width="17" height="21" viewBox="0 0 17 21" fill="none" xmlns="http://www.w3.org/2000/svg">
<path d="M16.375 14.5V2.5C16.375 1.96957 16.1643 1.46086 15.7892 1.08579C15.4141 0.710714 14.9054 0.5 14.375 0.5H2.375C1.84457 0.5 1.33586 0.710714 0.960786 1.08579C0.585714 1.46086 0.375 1.96957 0.375 2.5V17.5C0.375 18.2956 0.691071 19.0587 1.25368 19.6213C1.81629 20.1839 2.57935 20.5 3.375 20.5H15.375C15.6402 20.5 15.8946 20.3946 16.0821 20.2071C16.2696 20.0196 16.375 19.7652 16.375 19.5C16.375 19.2348 16.2696 18.9804 16.0821 18.7929C15.8946 18.6054 15.6402 18.5 15.375 18.5H14.375V16.5C14.9054 16.5 15.4141 16.2893 15.7892 15.9142C16.1643 15.5391 16.375 15.0304 16.375 14.5ZM4.375 2.5H6.375V14.5H4.375V2.5ZM12.375 18.5H3.375C3.10978 18.5 2.85543 18.3946 2.66789 18.2071C2.48036 18.0196 2.375 17.7652 2.375 17.5C2.375 17.2348 2.48036 16.9804 2.66789 16.7929C2.85543 16.6054 3.10978 16.5 3.375 16.5H12.375V18.5Z" fill="#6B7280"/>
</svg>
